<svg width="513" height="513" viewBox="0 0 513 513" fill="none" xmlns="http://www.w3.org/2000/svg">
<g clip-path="url(#clip0_1610_382)">
<path d="M256.001 512C397.386 512 512.001 397.385 512.001 256C512.001 114.615 397.386 0 256.001 0C114.616 0 0.000976562 114.615 0.000976562 256C0.000976562 397.385 114.616 512 256.001 512Z" fill="url(#paint0_linear_1610_382)"/>
<path d="M393.165 118.834C317.353 90.252 228.503 106.468 167.485 167.486C106.467 228.504 90.2521 317.352 118.833 393.166C194.645 421.748 283.495 405.532 344.513 344.514C405.531 283.496 421.747 194.648 393.165 118.834Z" fill="#D48B07"/>
<path d="M393.165 118.834C392.813 118.701 392.458 118.587 392.107 118.456L118.457 392.108C118.588 392.46 118.702 392.815 118.835 393.166C194.647 421.748 283.497 405.532 344.515 344.514C405.531 283.498 421.747 194.648 393.165 118.834Z" fill="#AF6E08"/>
<path d="M231.346 123.525L388.477 280.656C397.252 260.947 402.854 240.174 405.339 219.102L292.899 106.663C271.828 109.147 251.057 114.75 231.346 123.525Z" fill="#FFEDB5"/>
<path d="M405.338 219.102L348.4 162.164L309.193 201.371L388.475 280.653C397.251 260.944 402.853 240.173 405.338 219.102Z" fill="#FEE187"/>
<path d="M280.656 388.475L123.526 231.345C114.751 251.054 109.149 271.827 106.664 292.899L219.102 405.337C240.174 402.853 260.945 397.25 280.656 388.475Z" fill="#FFEDB5"/>
<path d="M162.165 348.4L219.102 405.337C240.173 402.853 260.945 397.25 280.656 388.475L201.374 309.193L162.165 348.4Z" fill="#FEE187"/>
<path d="M290.231 237.615L303.131 224.715C307.508 220.34 307.508 213.246 303.131 208.871C298.757 204.494 291.66 204.494 287.287 208.871L274.387 221.771L262.706 210.09C259.007 206.387 252.999 206.387 249.299 210.09C245.596 213.791 245.596 219.796 249.299 223.497L260.98 235.178L254.784 241.374L243.103 229.693C239.404 225.99 233.396 225.99 229.696 229.693C225.993 233.394 225.993 239.399 229.696 243.1L241.377 254.781L235.181 260.977L223.5 249.294C219.801 245.591 213.793 245.591 210.093 249.294C206.39 252.995 206.39 259 210.093 262.701L221.774 274.382L208.874 287.282C204.497 291.657 204.497 298.751 208.874 303.126C211.062 305.315 213.93 306.408 216.797 306.408C219.664 306.408 222.532 305.313 224.72 303.126L237.62 290.226L249.301 301.907C251.151 303.758 253.578 304.684 256.005 304.684C258.432 304.684 260.858 303.758 262.709 301.907C266.412 298.206 266.412 292.201 262.709 288.5L251.028 276.819L257.224 270.623L268.905 282.304C270.755 284.155 273.182 285.081 275.609 285.081C278.036 285.081 280.462 284.155 282.313 282.304C286.016 278.603 286.016 272.598 282.313 268.897L270.632 257.216L276.828 251.02L288.509 262.701C290.359 264.552 292.786 265.478 295.213 265.478C297.64 265.478 300.066 264.552 301.917 262.701C305.62 259 305.62 252.995 301.917 249.294L290.231 237.615Z" fill="#FBECB7"/>
<path d="M303.131 208.87C302.888 208.627 302.635 208.403 302.378 208.187L208.191 302.374C208.406 302.633 208.631 302.886 208.874 303.127C211.062 305.316 213.93 306.409 216.797 306.409C219.664 306.409 222.532 305.314 224.72 303.127L237.62 290.227L249.301 301.908C251.151 303.759 253.578 304.685 256.005 304.685C258.432 304.685 260.858 303.759 262.709 301.908C266.412 298.207 266.412 292.202 262.709 288.501L251.028 276.82L257.224 270.624L268.905 282.305C270.755 284.156 273.182 285.082 275.609 285.082C278.036 285.082 280.462 284.156 282.313 282.305C286.016 278.604 286.016 272.599 282.313 268.898L270.632 257.217L276.828 251.021L288.509 262.702C290.359 264.553 292.786 265.479 295.213 265.479C297.64 265.479 300.066 264.553 301.917 262.702C305.62 259.001 305.62 252.996 301.917 249.295L290.236 237.614L303.136 224.714C307.508 220.339 307.508 213.245 303.131 208.87Z" fill="#FEE187"/>
</g>
<defs>
<linearGradient id="paint0_linear_1610_382" x1="73.5" y1="72" x2="480" y2="478" gradientUnits="userSpaceOnUse">
<stop stop-color="#DD4C4C"/>
<stop offset="1" stop-color="#8A0E0E"/>
</linearGradient>
<clipPath id="clip0_1610_382">
<rect width="512.002" height="512.002" fill="white"/>
</clipPath>
</defs>
</svg>
