<?xml version="1.0" encoding="utf-8"?>
<!-- Generator: Adobe Illustrator 25.2.1, SVG Export Plug-In . SVG Version: 6.00 Build 0)  -->
<svg version="1.1" id="Camada_1" xmlns="http://www.w3.org/2000/svg" xmlns:xlink="http://www.w3.org/1999/xlink" x="0px" y="0px"
	 viewBox="0 0 595.28 841.89" style="enable-background:new 0 0 595.28 841.89;" xml:space="preserve">
<style type="text/css">
	.st0{fill:url(#SVGID_1_);}
	.st1{fill:url(#SVGID_2_);}
	.st2{fill:#020203;}
	.st3{fill:#100B0D;}
	.st4{fill:#231F20;}
	.st5{fill:url(#SVGID_3_);}
	.st6{fill:#FFFFFF;}
	.st7{fill:url(#SVGID_4_);}
	.st8{fill:url(#SVGID_5_);}
	.st9{fill:url(#SVGID_6_);}
	.st10{fill:url(#SVGID_7_);}
	.st11{fill:url(#SVGID_8_);}
	.st12{fill:url(#SVGID_9_);}
	.st13{fill:url(#SVGID_10_);}
	.st14{fill:url(#SVGID_11_);}
	.st15{fill:url(#SVGID_12_);}
	.st16{fill:url(#SVGID_13_);}
	.st17{fill:url(#SVGID_14_);}
	.st18{fill:url(#SVGID_15_);}
	.st19{fill:url(#SVGID_16_);}
	.st20{fill:url(#SVGID_17_);}
	.st21{fill:url(#SVGID_18_);}
	.st22{fill:url(#SVGID_19_);}
</style>
<g>
	<linearGradient id="SVGID_1_" gradientUnits="userSpaceOnUse" x1="262.0667" y1="172.1098" x2="232.0365" y2="342.7695">
		<stop  offset="0" style="stop-color:#E52527;stop-opacity:0"/>
		<stop  offset="1" style="stop-color:#E52527"/>
	</linearGradient>
	<polygon class="st0" points="186.57,272.6 220.47,276.35 252.94,209.93 310.62,170.41 290.48,339.17 	"/>
	<linearGradient id="SVGID_2_" gradientUnits="userSpaceOnUse" x1="379.7012" y1="375.719" x2="204.8355" y2="132.0859">
		<stop  offset="0" style="stop-color:#E52527;stop-opacity:0"/>
		<stop  offset="1" style="stop-color:#E52527"/>
	</linearGradient>
	<polygon class="st1" points="285.66,259.4 304.3,306.83 356.58,251.69 304.3,327.82 332.12,327.82 310.62,364.09 264.36,306.83 	
		"/>
	<path class="st2" d="M268.22,420.37c0,0,5.61,33.48,26.65,77.66c0,0,13.09,26.5,26.18,33.01c0,0,19.17,10.69,20.57,11.63
		c1.4,0.93,34.59,25.57,40.67,29.76c6.08,4.19,11.22,9.3,7.48,11.63c-3.74,2.32-8.41,2.32-10.28,6.51
		c-1.87,4.19-0.94,11.63,0.93,12.09c1.87,0.47,16.36-0.93,26.64-3.25l3.74-1.4c0,0,8.41-0.46,10.75-2.32
		c2.34-1.86-0.93-8.37-5.61-16.28c-4.67-7.91-11.22-15.35-21.97-22.32c-10.75-6.97-29.45-34.41-29.45-34.41l-66.85-94.86
		C297.67,427.81,291.12,388.29,268.22,420.37z"/>
	<path class="st3" d="M221.49,216.93c0,0,6.86-4.65,16.83-4.65s21.19,4.96,26.18,22.01c0,0,2.49,0.62,2.49,4.96c0,4.34,0,9.3,0,9.3
		s2.49,1.86,5.3,5.58c2.8,3.72,7.48,5.58,7.17,2.17c-0.31-3.41-6.23-12.71-6.54-15.19c-0.31-2.48,3.74-3.41,5.3,0.62
		c1.56,4.03,7.17,15.81,8.41,13.64c1.25-2.17-6.54-16.43-6.54-17.67c0-1.24,2.8-2.48,4.68,2.48c1.87,4.96,6.23,14.88,7.17,12.71
		c0.93-2.17-2.49-13.33,0-13.95c2.49-0.62,2.49-0.31,3.43,4.03c0.94,4.34,2.18,9.92,4.05,12.4c1.87,2.48,3.74,7.13,3.74,7.13
		s5.61,0.31,10.28,4.96c4.67,4.65,3.74,18.6,3.43,21.08c-0.31,2.48,2.49,13.02-6.23,23.25c0,0-1.25,7.75,1.56,20.46
		c2.8,12.71,8.41,32.24,11.84,35.65c0,0-0.31,3.72-1.87,4.65c0,0,14.02,9.61,19.01,28.21c4.99,18.6-1.56,44.95-21.5,54.25
		l-14.96,1.86c0,0,12.78,14.88,14.65,23.87c1.87,8.99,6.86,25.73,9.04,32.24c0,0,1.25,4.03,3.74,5.27c2.49,1.24,3.43,2.79,4.36,6.51
		c0.93,3.72,7.48,13.02,11.22,13.95c3.74,0.93,10.28,2.17,14.34,8.06c4.05,5.89,0,8.68,2.8,17.98c2.8,9.3-0.62,17.36-1.25,18.29
		c-0.62,0.93-9.97,22.32-18.7,20.15c-8.73-2.17-8.73-10.85-8.73-15.81c0-4.96-3.74-21.08-3.74-21.08s-3.12-6.51-4.05-7.13
		c-0.93-0.62-12.15-6.2-10.59-20.15c0,0-5.92-18.6-25.87-38.75c-19.95-20.15-31.16-35.34-31.16-35.34l-9.35,3.1
		c0,0-0.62-4.96-3.74-10.85c-3.12-5.89-9.66-21.7-7.17-29.14c2.49-7.44,14.96-20.23,14.96-20.23s0.31-6.43-9.66-8.29
		c0,0-12.47,6.98-18.39,8.29c-5.92,1.32-12.47,0.23-14.34,0c-1.87-0.23-29.29-1.16-31.16-2.09c-1.87-0.93-5.6-10.85-6.07-13.02
		c-0.47-2.17,0-9.61,0-9.61s-0.88-6.82-0.21-7.13c0.67-0.31,1.61-1.55,1.61-2.79c0-1.24,0.62-3.1,0-5.27
		c-0.62-2.17-2.17-3.72-1.4-4.65c0.77-0.93,0-4.65,0-4.65s0.16-2.79,0-4.03c-0.16-1.24-2.02-2.48,0-2.79
		c2.02-0.31,2.64-2.17,2.64-3.72c0-1.55-2.48-16.43-3.58-17.67c-1.1-1.24-3.28-16.12,2.95-24.8c0,0,5.92-15.5,18.7-19.22
		c12.78-3.72,21.5-5.89,22.13-8.06l-0.31-2.48c0,0-9.04-10.85-11.22-27.9c-0.88-6.88-1.18-12.22,1.89-18.61
		c1.35-2.8,3.11-5.44,5.42-7.54C216.52,219.92,219.02,218.18,221.49,216.93z"/>
	<g>
		<path class="st4" d="M274.38,404.13c0.21,1.88-1.17,4.51-3.46,5.12c-4.72,1.24-4.11-5.92,0.15-6.96
			C273.21,401.76,274.23,402.74,274.38,404.13z"/>
		<path class="st4" d="M279.86,392.72c2.43-3.26,5.55-5.05,6.96-3.99c1.41,1.05,0.59,4.55-1.84,7.81c-2.43,3.26-5.55,5.05-6.96,3.99
			C276.6,399.47,277.43,395.97,279.86,392.72z"/>
		<path class="st4" d="M276.89,406.76c0.3-1.38,1.03-2.4,1.63-2.27c0.6,0.13,0.85,1.36,0.55,2.74c-0.3,1.39-1.03,2.4-1.63,2.28
			C276.83,409.37,276.59,408.15,276.89,406.76z"/>
		<path class="st4" d="M263.71,406.9c0.7-1.23,1.7-1.98,2.24-1.68c0.53,0.3,0.4,1.55-0.3,2.78c-0.7,1.23-1.7,1.98-2.24,1.68
			C262.88,409.38,263.01,408.13,263.71,406.9z"/>
	</g>
	<linearGradient id="SVGID_3_" gradientUnits="userSpaceOnUse" x1="284.3854" y1="423.1179" x2="192.4762" y2="207.5845">
		<stop  offset="0" style="stop-color:#E52527;stop-opacity:0"/>
		<stop  offset="1" style="stop-color:#E52527"/>
	</linearGradient>
	<path class="st5" d="M221.49,216.93c0,0,6.86-4.65,16.83-4.65s21.19,4.96,26.18,22.01c0,0,2.49,0.62,2.49,4.96c0,4.34,0,9.3,0,9.3
		s2.49,1.86,5.3,5.58c2.8,3.72,7.48,5.58,7.17,2.17c-0.31-3.41-6.23-12.71-6.54-15.19c-0.31-2.48,3.74-3.41,5.3,0.62
		c1.56,4.03,7.17,15.81,8.41,13.64c1.25-2.17-6.54-16.43-6.54-17.67c0-1.24,2.8-2.48,4.68,2.48c1.87,4.96,6.23,14.88,7.17,12.71
		c0.93-2.17-2.49-13.33,0-13.95c2.49-0.62,2.49-0.31,3.43,4.03c0.94,4.34,2.18,9.92,4.05,12.4c1.87,2.48,3.74,7.13,3.74,7.13
		s5.61,0.31,10.28,4.96c4.67,4.65,3.74,18.6,3.43,21.08c-0.31,2.48,2.49,13.02-6.23,23.25c0,0-1.25,7.75,1.56,20.46
		c2.8,12.71,8.41,32.24,11.84,35.65c0,0-0.31,3.72-1.87,4.65c0,0,14.02,9.61,19.01,28.21c4.99,18.6-1.56,44.95-21.5,54.25
		l-14.96,1.86c0,0,12.78,14.88,14.65,23.87c1.87,8.99,6.86,25.73,9.04,32.24c0,0,1.25,4.03,3.74,5.27c2.49,1.24,3.43,2.79,4.36,6.51
		c0.93,3.72,7.48,13.02,11.22,13.95c3.74,0.93,10.28,2.17,14.34,8.06c4.05,5.89,0,8.68,2.8,17.98c2.8,9.3-0.62,17.36-1.25,18.29
		c-0.62,0.93-9.97,22.32-18.7,20.15c-8.73-2.17-8.73-10.85-8.73-15.81c0-4.96-3.74-21.08-3.74-21.08s-3.12-6.51-4.05-7.13
		c-0.93-0.62-12.15-6.2-10.59-20.15c0,0-5.92-18.6-25.87-38.75c-19.95-20.15-31.16-35.34-31.16-35.34l-9.35,3.1
		c0,0-0.62-4.96-3.74-10.85c-3.12-5.89-9.66-21.7-7.17-29.14c2.49-7.44,14.96-20.23,14.96-20.23s0.31-6.43-9.66-8.29
		c0,0-12.47,6.98-18.39,8.29c-5.92,1.32-12.47,0.23-14.34,0c-1.87-0.23-29.29-1.16-31.16-2.09c-1.87-0.93-5.6-10.85-6.07-13.02
		c-0.47-2.17,0-9.61,0-9.61s-0.88-6.82-0.21-7.13c0.67-0.31,1.61-1.55,1.61-2.79c0-1.24,0.62-3.1,0-5.27
		c-0.62-2.17-2.17-3.72-1.4-4.65c0.77-0.93,0-4.65,0-4.65s0.16-2.79,0-4.03c-0.16-1.24-2.02-2.48,0-2.79
		c2.02-0.31,2.64-2.17,2.64-3.72c0-1.55-2.48-16.43-3.58-17.67c-1.1-1.24-3.28-16.12,2.95-24.8c0,0,5.92-15.5,18.7-19.22
		c12.78-3.72,21.5-5.89,22.13-8.06l-0.31-2.48c0,0-9.04-10.85-11.22-27.9c-0.88-6.88-1.18-12.22,1.89-18.61
		c1.35-2.8,3.11-5.44,5.42-7.54C216.52,219.92,219.02,218.18,221.49,216.93z"/>
	<path class="st6" d="M240.18,228.04c0.71,1.07,0.68,2.34-0.07,2.84c-0.75,0.5-1.94,0.03-2.65-1.04c-0.71-1.07-0.68-2.34,0.07-2.84
		C238.28,226.51,239.47,226.97,240.18,228.04z"/>
	<path class="st6" d="M253.76,220.04c0.33,0.55,0.29,1.18-0.09,1.41c-0.38,0.23-0.96-0.03-1.3-0.57c-0.33-0.55-0.29-1.18,0.09-1.41
		C252.84,219.24,253.42,219.5,253.76,220.04z"/>
	<path class="st6" d="M235.14,223.03c0.59,0.26,0.92,0.8,0.73,1.21c-0.18,0.41-0.81,0.53-1.39,0.27c-0.59-0.26-0.92-0.8-0.73-1.21
		C233.93,222.89,234.55,222.77,235.14,223.03z"/>
	<path class="st6" d="M255.48,226.09c-0.19,1.27-1.07,2.19-1.96,2.05c-0.89-0.14-1.46-1.28-1.27-2.55c0.19-1.27,1.07-2.19,1.96-2.05
		S255.67,224.82,255.48,226.09z"/>
	<path class="st6" d="M221.24,250.86c0.98,2.72,0.6,5.35-0.86,5.87c-1.46,0.52-3.43-1.26-4.42-3.98c-0.98-2.72-0.6-5.35,0.86-5.87
		C218.28,246.36,220.26,248.14,221.24,250.86z"/>
	<g>
		<path class="st6" d="M220.44,251.69l-1.81-1.62c0.69-0.77,6.81-7.54,10.13-8.3c0.63-0.15,2.2-0.61,4.38-1.26
			c8.25-2.43,25.31-7.48,32.92-7.44l-0.02,2.43c-7.22,0.02-24.07,4.94-32.21,7.34c-2.25,0.66-3.88,1.15-4.53,1.29
			C227.37,244.58,222.84,249,220.44,251.69z"/>
	</g>
	<path class="st6" d="M220.47,253.2c0,0,4.67-6.51,9.66-7.28c4.99-0.78,26.18-9.3,37.71-8.68c0,0,1.25,14.1,0,20.92
		c0,0-11.84,8.99-44.1,1.24L220.47,253.2z"/>
	<g>
		<path class="st6" d="M243.86,313.31l7.22-2.11l10.68,36.17l7.12-2.08l2.07,6.99l-23.82,6.96l-2.06-6.99l7.25-2.12l-7.46-25.27
			c-1.49,2.84-3.38,5.33-5.66,7.48l-2.47-8.37C239.96,320.85,242.35,317.3,243.86,313.31z"/>
	</g>
	<linearGradient id="SVGID_4_" gradientUnits="userSpaceOnUse" x1="213.8519" y1="209.5303" x2="240.2908" y2="296.6958">
		<stop  offset="0" style="stop-color:#E52527;stop-opacity:0"/>
		<stop  offset="1" style="stop-color:#E52527"/>
	</linearGradient>
	<path class="st7" d="M227.67,214.05l13.89,23.15l-30.88-2.91L209,256.82C209,256.82,194.88,222.89,227.67,214.05z"/>
	<linearGradient id="SVGID_5_" gradientUnits="userSpaceOnUse" x1="236.7147" y1="248.7737" x2="257.0717" y2="315.888">
		<stop  offset="0" style="stop-color:#E52527;stop-opacity:0"/>
		<stop  offset="1" style="stop-color:#E52527"/>
	</linearGradient>
	<path class="st8" d="M223.74,259.4l22.65,21.71l10.69-18.56C257.09,262.55,236.3,263.52,223.74,259.4z"/>
	<linearGradient id="SVGID_6_" gradientUnits="userSpaceOnUse" x1="190.0773" y1="216.031" x2="250.4632" y2="415.1154">
		<stop  offset="0" style="stop-color:#E52527;stop-opacity:0"/>
		<stop  offset="1" style="stop-color:#E52527"/>
	</linearGradient>
	<polygon class="st9" points="210.6,235.44 235.92,256.82 225.17,286.28 242.35,304.82 183.53,304.82 186.47,292.57 186.57,272.6 
		199.34,233.07 	"/>
	<linearGradient id="SVGID_7_" gradientUnits="userSpaceOnUse" x1="193.272" y1="260.9579" x2="239.3051" y2="412.7231">
		<stop  offset="0" style="stop-color:#E52527;stop-opacity:0"/>
		<stop  offset="1" style="stop-color:#E52527"/>
	</linearGradient>
	<path class="st10" d="M164.69,284.76l54-6.45l20.13,13.74c0,0-26.41,40.75-27.63,43.17c-1.22,2.42-40.73-30.4-40.73-30.4
		L164.69,284.76z"/>
	<linearGradient id="SVGID_8_" gradientUnits="userSpaceOnUse" x1="177.0086" y1="283.4673" x2="207.3987" y2="383.6595">
		<stop  offset="0" style="stop-color:#E52527;stop-opacity:0"/>
		<stop  offset="1" style="stop-color:#E52527"/>
	</linearGradient>
	<path class="st11" d="M192.65,288.71l9.1,22.49l-17.34,4.99c0,0-1.18,16.6-0.88,17.81c0.3,1.22-8.62-3.61-8.62-3.61
		s-2.62-13.71,2.85-24.05C177.76,306.34,185.05,292.36,192.65,288.71z"/>
	<linearGradient id="SVGID_9_" gradientUnits="userSpaceOnUse" x1="169.3712" y1="299.9629" x2="232.5977" y2="508.4126">
		<stop  offset="0" style="stop-color:#E52527;stop-opacity:0"/>
		<stop  offset="1" style="stop-color:#E52527"/>
	</linearGradient>
	<polygon class="st12" points="211.19,335.23 183.53,348.89 226.69,370.17 181.92,405.72 164.69,403.3 161.34,359.25 166.21,334.2 
		174.91,330.39 183.53,334 184.41,316.19 	"/>
	<linearGradient id="SVGID_10_" gradientUnits="userSpaceOnUse" x1="214.9371" y1="379.5053" x2="214.9371" y2="379.5053">
		<stop  offset="0" style="stop-color:#E52527;stop-opacity:0"/>
		<stop  offset="1" style="stop-color:#E52527"/>
	</linearGradient>
	<path class="st13" d="M214.94,379.51"/>
	<linearGradient id="SVGID_11_" gradientUnits="userSpaceOnUse" x1="230.2006" y1="423.4511" x2="211.3566" y2="326.1915">
		<stop  offset="0" style="stop-color:#E52527;stop-opacity:0"/>
		<stop  offset="1" style="stop-color:#E52527"/>
	</linearGradient>
	<polygon class="st14" points="214.94,379.51 233.7,384.7 266.06,377.05 223.74,408.33 181.92,405.72 	"/>
	<path class="st4" d="M202.17,352.45c-4.42,3.77-1.95,18.87,9.03,25.33c10.98,6.46,26.19,12.1,41.45,0.38c0,0,3.2-7.27-4.65-16.71
		c-3.56-4.28-7.64-7.16-11.42-9.18c-3.27-1.67-12.59-5.43-26.58-2.85C206.81,350.14,203.79,351.07,202.17,352.45z"/>
	<linearGradient id="SVGID_12_" gradientUnits="userSpaceOnUse" x1="199.7369" y1="364.0916" x2="241.2074" y2="364.0916">
		<stop  offset="0" style="stop-color:#E52527;stop-opacity:0"/>
		<stop  offset="1" style="stop-color:#E52527"/>
	</linearGradient>
	<path class="st15" d="M230.43,350.06c-4.77-1.34-11.8-2.29-20.78-0.64c-3.2,0.72-6.22,1.65-7.84,3.02
		c-4.42,3.77-1.95,18.87,9.03,25.33c0.9,0.53,1.85,1.05,2.81,1.57c0.47,0.09,0.92,0.2,1.41,0.29l26.14-12.88L230.43,350.06z"/>
	<linearGradient id="SVGID_13_" gradientUnits="userSpaceOnUse" x1="201.7527" y1="362.3918" x2="252.9396" y2="362.3918">
		<stop  offset="0" style="stop-color:#E52527;stop-opacity:0"/>
		<stop  offset="1" style="stop-color:#E52527"/>
	</linearGradient>
	<path class="st16" d="M236.23,352.27c-3.27-1.67-12.59-5.43-26.58-2.85c-3.2,0.72-6.22,1.65-7.84,3.02
		c-0.02,0.02-0.04,0.05-0.06,0.07c3.42,0.82,38.85,9.62,51.03,23.72c0.43-2.76,0.29-8.25-5.14-14.79
		C244.09,357.17,240,354.29,236.23,352.27z"/>
	<linearGradient id="SVGID_14_" gradientUnits="userSpaceOnUse" x1="328.4568" y1="356.1095" x2="219.8472" y2="316.7994">
		<stop  offset="0" style="stop-color:#E52527;stop-opacity:0"/>
		<stop  offset="1" style="stop-color:#E52527"/>
	</linearGradient>
	<polygon class="st17" points="310.62,311.79 299.03,326.6 299.03,350.51 281.2,371.53 304.71,385.37 322.15,372.55 331.45,364.09 
		319.29,350.51 	"/>
	<linearGradient id="SVGID_15_" gradientUnits="userSpaceOnUse" x1="313.7685" y1="334.3893" x2="268.0178" y2="317.8304">
		<stop  offset="0" style="stop-color:#E52527;stop-opacity:0"/>
		<stop  offset="1" style="stop-color:#E52527"/>
	</linearGradient>
	<polygon class="st18" points="299.03,350.51 315.9,335.35 310.62,311.79 299.03,326.6 	"/>
	<linearGradient id="SVGID_16_" gradientUnits="userSpaceOnUse" x1="359.9937" y1="366.3447" x2="208.1632" y2="311.3912">
		<stop  offset="0" style="stop-color:#E52527;stop-opacity:0"/>
		<stop  offset="1" style="stop-color:#E52527"/>
	</linearGradient>
	<polygon class="st19" points="304.3,359.25 351.71,327.82 378.06,339.17 325.58,389.42 	"/>
	<linearGradient id="SVGID_17_" gradientUnits="userSpaceOnUse" x1="314.4547" y1="487.2542" x2="209.2895" y2="467.8017">
		<stop  offset="0" style="stop-color:#E52527;stop-opacity:0"/>
		<stop  offset="1" style="stop-color:#E52527"/>
	</linearGradient>
	<path class="st20" d="M304.7,456.88l-19.04,13.59l34.65,26.14l-4.41,17.02l9.68,4.26l6.54,0.37
		C332.12,518.26,323.13,468.82,304.7,456.88z"/>
	<linearGradient id="SVGID_18_" gradientUnits="userSpaceOnUse" x1="306.7905" y1="346.2843" x2="234.6542" y2="245.7798">
		<stop  offset="0" style="stop-color:#E52527;stop-opacity:0"/>
		<stop  offset="1" style="stop-color:#E52527"/>
	</linearGradient>
	<polygon class="st21" points="258.91,304.82 289.71,316.19 283.63,304.82 310.62,311.79 299.03,326.6 273.09,339.17 	"/>
	<linearGradient id="SVGID_19_" gradientUnits="userSpaceOnUse" x1="239.8936" y1="242.0683" x2="318.1327" y2="252.5878">
		<stop  offset="0" style="stop-color:#E52527;stop-opacity:0"/>
		<stop  offset="1" style="stop-color:#E52527"/>
	</linearGradient>
	<polygon class="st22" points="257.09,231.08 257.09,262.55 267.84,258.16 267.84,237.24 261.55,226.81 	"/>
</g>
</svg>
