<?xml version="1.0" encoding="utf-8"?>
<!-- Generator: Adobe Illustrator 25.2.1, SVG Export Plug-In . SVG Version: 6.00 Build 0)  -->
<svg version="1.1" id="Camada_1" xmlns="http://www.w3.org/2000/svg" xmlns:xlink="http://www.w3.org/1999/xlink" x="0px" y="0px"
	 viewBox="0 0 595.28 841.89" style="enable-background:new 0 0 595.28 841.89;" xml:space="preserve">
<style type="text/css">
	.st0{opacity:0.7;fill:url(#SVGID_1_);}
	.st1{opacity:0.7;fill:url(#SVGID_2_);}
	.st2{opacity:0.7;fill:url(#SVGID_3_);}
	.st3{opacity:0.7;fill:url(#SVGID_4_);}
	.st4{opacity:0.7;fill:url(#SVGID_5_);}
	.st5{opacity:0.7;fill:url(#SVGID_6_);}
	.st6{opacity:0.7;fill:url(#SVGID_7_);}
	.st7{fill:url(#SVGID_8_);}
	.st8{fill:url(#SVGID_9_);}
	.st9{fill:#020203;}
	.st10{fill:#100B0D;}
	.st11{fill:#231F20;}
	.st12{fill:url(#SVGID_10_);}
	.st13{fill:#FFFFFF;}
	.st14{fill:url(#SVGID_11_);}
	.st15{fill:url(#SVGID_12_);}
	.st16{fill:url(#SVGID_13_);}
	.st17{fill:url(#SVGID_14_);}
	.st18{fill:url(#SVGID_15_);}
	.st19{fill:url(#SVGID_16_);}
	.st20{fill:url(#SVGID_17_);}
	.st21{fill:url(#SVGID_18_);}
	.st22{fill:url(#SVGID_19_);}
	.st23{fill:url(#SVGID_20_);}
	.st24{fill:url(#SVGID_21_);}
	.st25{fill:url(#SVGID_22_);}
	.st26{fill:url(#SVGID_23_);}
	.st27{fill:url(#SVGID_24_);}
	.st28{fill:url(#SVGID_25_);}
	.st29{fill:url(#SVGID_26_);}
	.st30{fill:#E52527;}
	.st31{opacity:0.5;}
	.st32{opacity:0.7;fill:url(#SVGID_27_);}
	.st33{opacity:0.7;fill:url(#SVGID_28_);}
	.st34{opacity:0.7;fill:url(#SVGID_29_);}
	.st35{opacity:0.7;fill:url(#SVGID_30_);}
	.st36{opacity:0.7;fill:url(#SVGID_31_);}
	.st37{opacity:0.7;fill:url(#SVGID_32_);}
	.st38{opacity:0.7;fill:url(#SVGID_33_);}
	.st39{opacity:0.7;fill:url(#SVGID_34_);}
	.st40{fill:url(#SVGID_35_);}
	.st41{fill:url(#SVGID_36_);}
	.st42{fill:url(#SVGID_37_);}
	.st43{fill:url(#SVGID_38_);}
	.st44{fill:url(#SVGID_39_);}
	.st45{fill:url(#SVGID_40_);}
	.st46{fill:url(#SVGID_41_);}
	.st47{fill:url(#SVGID_42_);}
	.st48{fill:url(#SVGID_43_);}
	.st49{fill:url(#SVGID_44_);}
	.st50{fill:url(#SVGID_45_);}
	.st51{fill:url(#SVGID_46_);}
	.st52{fill:url(#SVGID_47_);}
	.st53{fill:url(#SVGID_48_);}
	.st54{fill:url(#SVGID_49_);}
	.st55{fill:url(#SVGID_50_);}
	.st56{fill:url(#SVGID_51_);}
	.st57{opacity:0.7;fill:url(#SVGID_52_);}
	.st58{opacity:0.7;fill:url(#SVGID_53_);}
	.st59{opacity:0.7;fill:url(#SVGID_54_);}
	.st60{opacity:0.7;fill:url(#SVGID_55_);}
	.st61{opacity:0.7;fill:url(#SVGID_56_);}
	.st62{opacity:0.7;fill:url(#SVGID_57_);}
	.st63{opacity:0.7;fill:url(#SVGID_58_);}
	.st64{opacity:0.7;fill:url(#SVGID_59_);}
	.st65{opacity:0.7;fill:url(#SVGID_60_);}
	.st66{opacity:0.7;fill:url(#SVGID_61_);}
	.st67{opacity:0.7;fill:url(#SVGID_62_);}
	.st68{opacity:0.7;fill:url(#SVGID_63_);}
	.st69{opacity:0.7;fill:url(#SVGID_64_);}
	.st70{opacity:0.7;fill:url(#SVGID_65_);}
	.st71{opacity:0.7;fill:url(#SVGID_66_);}
	.st72{opacity:0.7;fill:url(#SVGID_67_);}
	.st73{opacity:0.7;fill:url(#SVGID_68_);}
	.st74{opacity:0.7;fill:url(#SVGID_69_);}
	.st75{opacity:0.7;fill:url(#SVGID_70_);}
	.st76{opacity:0.7;fill:url(#SVGID_71_);}
	.st77{fill:url(#SVGID_72_);}
	.st78{fill:url(#SVGID_73_);}
	.st79{fill:url(#SVGID_74_);}
	.st80{fill:url(#SVGID_75_);}
	.st81{fill:url(#SVGID_76_);}
	.st82{fill:url(#SVGID_77_);}
	.st83{fill:url(#SVGID_78_);}
	.st84{fill:url(#SVGID_79_);}
	.st85{fill:url(#SVGID_80_);}
	.st86{fill:url(#SVGID_81_);}
	.st87{fill:url(#SVGID_82_);}
	.st88{fill:url(#SVGID_83_);}
	.st89{fill:url(#SVGID_84_);}
	.st90{fill:url(#SVGID_85_);}
	.st91{fill:url(#SVGID_86_);}
	.st92{fill:url(#SVGID_87_);}
	.st93{fill:url(#SVGID_88_);}
	.st94{fill:url(#SVGID_89_);}
	.st95{fill:url(#SVGID_90_);}
	.st96{fill:url(#SVGID_91_);}
	.st97{opacity:0.7;fill:url(#SVGID_92_);}
	.st98{opacity:0.7;fill:url(#SVGID_93_);}
	.st99{opacity:0.7;fill:url(#SVGID_94_);}
	.st100{opacity:0.7;fill:url(#SVGID_95_);}
	.st101{opacity:0.7;fill:url(#SVGID_96_);}
	.st102{opacity:0.7;fill:url(#SVGID_97_);}
	.st103{opacity:0.7;fill:url(#SVGID_98_);}
	.st104{opacity:0.7;fill:url(#SVGID_99_);}
	.st105{opacity:0.7;fill:url(#SVGID_100_);}
	.st106{opacity:0.7;fill:url(#SVGID_101_);}
	.st107{opacity:0.7;fill:url(#SVGID_102_);}
	.st108{opacity:0.7;fill:url(#SVGID_104_);}
	.st109{opacity:0.7;fill:url(#SVGID_105_);}
	.st110{fill:url(#SVGID_106_);}
	.st111{fill:url(#SVGID_107_);}
	.st112{fill:url(#SVGID_108_);}
	.st113{clip-path:url(#SVGID_109_);}
	.st114{fill:url(#SVGID_110_);}
	.st115{fill:url(#SVGID_111_);}
	.st116{fill:url(#SVGID_112_);}
	.st117{fill:url(#SVGID_113_);}
	.st118{fill:url(#SVGID_114_);}
	.st119{fill:url(#SVGID_115_);}
	.st120{fill:url(#SVGID_116_);}
	.st121{fill:url(#SVGID_117_);}
	.st122{fill:url(#SVGID_118_);}
	.st123{fill:url(#SVGID_119_);}
	.st124{fill:url(#SVGID_120_);}
	.st125{fill:url(#SVGID_121_);}
	.st126{fill:url(#SVGID_122_);}
	.st127{fill:url(#SVGID_123_);}
	.st128{fill:url(#SVGID_124_);}
	.st129{fill:url(#SVGID_125_);}
	.st130{fill:url(#SVGID_126_);}
	.st131{fill:url(#SVGID_127_);}
	.st132{fill:url(#SVGID_128_);}
	.st133{fill:url(#SVGID_129_);}
	.st134{fill:url(#SVGID_130_);}
	.st135{fill:url(#SVGID_131_);}
	.st136{fill:url(#SVGID_132_);}
	.st137{fill:url(#SVGID_133_);}
	.st138{fill:url(#SVGID_134_);}
	.st139{fill:url(#SVGID_135_);}
	.st140{fill:url(#SVGID_136_);}
	.st141{fill:url(#SVGID_137_);}
	.st142{fill:url(#SVGID_138_);}
	.st143{fill:url(#SVGID_139_);}
	.st144{fill:url(#SVGID_140_);}
</style>
<linearGradient id="SVGID_1_" gradientUnits="userSpaceOnUse" x1="814.0795" y1="177.1619" x2="732.0717" y2="217.6263" gradientTransform="matrix(-0.4792 0.8777 0.8777 0.4792 419.1021 -361.2756)">
	<stop  offset="0" style="stop-color:#E52527;stop-opacity:0"/>
	<stop  offset="1" style="stop-color:#E52527"/>
</linearGradient>
<polygon class="st0" points="196.13,391.01 162.7,386.08 171.17,418.98 228.83,466 255,455.95 "/>
<linearGradient id="SVGID_2_" gradientUnits="userSpaceOnUse" x1="846.3289" y1="121.0794" x2="765.1807" y2="265.7938" gradientTransform="matrix(-0.4792 0.8777 0.8777 0.4792 419.1021 -361.2756)">
	<stop  offset="0" style="stop-color:#E52527;stop-opacity:0"/>
	<stop  offset="1" style="stop-color:#E52527"/>
</linearGradient>
<polygon class="st1" points="159.79,422.97 126.58,454.29 221.07,454.57 "/>
<linearGradient id="SVGID_3_" gradientUnits="userSpaceOnUse" x1="833.3582" y1="204.0011" x2="800.9854" y2="261.7326" gradientTransform="matrix(-0.4792 0.8777 0.8777 0.4792 419.1021 -361.2756)">
	<stop  offset="0" style="stop-color:#E52527;stop-opacity:0"/>
	<stop  offset="1" style="stop-color:#E52527"/>
</linearGradient>
<polygon class="st2" points="197.87,449 190.06,474.25 202.73,488.99 227.64,464.42 206.8,446.72 "/>
<linearGradient id="SVGID_4_" gradientUnits="userSpaceOnUse" x1="828.6313" y1="183.3604" x2="876.1955" y2="340.1733" gradientTransform="matrix(-0.4792 0.8777 0.8777 0.4792 419.1021 -361.2756)">
	<stop  offset="0" style="stop-color:#E52527;stop-opacity:0"/>
	<stop  offset="1" style="stop-color:#E52527"/>
</linearGradient>
<polygon class="st3" points="241.79,435.78 173.41,484.24 179.96,528.8 239.53,508.88 "/>
<linearGradient id="SVGID_5_" gradientUnits="userSpaceOnUse" x1="851.1883" y1="198.499" x2="853.6425" y2="233.1641" gradientTransform="matrix(-0.4792 0.8777 0.8777 0.4792 419.1021 -361.2756)">
	<stop  offset="0" style="stop-color:#E52527;stop-opacity:0"/>
	<stop  offset="1" style="stop-color:#E52527"/>
</linearGradient>
<polygon class="st4" points="208.06,416.09 191.25,484.24 168.19,489.1 154.12,540.19 270.7,477.49 "/>
<linearGradient id="SVGID_6_" gradientUnits="userSpaceOnUse" x1="245.3299" y1="403.3251" x2="213.497" y2="417.3531">
	<stop  offset="0" style="stop-color:#E52527;stop-opacity:0"/>
	<stop  offset="1" style="stop-color:#E52527"/>
</linearGradient>
<polygon class="st5" points="210.92,404.55 234.58,401.27 240.89,415.64 240.83,419.24 213.62,407.64 "/>
<linearGradient id="SVGID_7_" gradientUnits="userSpaceOnUse" x1="237.3335" y1="395.5422" x2="207.1176" y2="382.3228">
	<stop  offset="0" style="stop-color:#E52527;stop-opacity:0"/>
	<stop  offset="1" style="stop-color:#E52527"/>
</linearGradient>
<polygon class="st6" points="210.92,404.55 229.18,371.41 225.91,402.47 "/>
<g>
	<linearGradient id="SVGID_8_" gradientUnits="userSpaceOnUse" x1="100.6337" y1="258.2343" x2="76.6932" y2="394.2863">
		<stop  offset="0" style="stop-color:#E52527;stop-opacity:0"/>
		<stop  offset="1" style="stop-color:#E52527"/>
	</linearGradient>
	<polygon class="st7" points="40.45,338.35 67.47,341.34 93.36,288.38 139.34,256.88 123.29,391.41 	"/>
	<linearGradient id="SVGID_9_" gradientUnits="userSpaceOnUse" x1="194.4133" y1="420.5541" x2="55.0082" y2="226.3268">
		<stop  offset="0" style="stop-color:#E52527;stop-opacity:0"/>
		<stop  offset="1" style="stop-color:#E52527"/>
	</linearGradient>
	<polygon class="st8" points="119.44,327.82 134.3,365.64 175.98,321.67 134.3,382.37 156.48,382.37 139.34,411.28 102.46,365.64 	
		"/>
	<path class="st9" d="M105.54,456.15c0,0,4.47,26.69,21.24,61.91c0,0,10.43,21.13,20.87,26.32c0,0,15.28,8.53,16.4,9.27
		c1.12,0.74,27.58,20.39,32.42,23.73c4.84,3.34,8.94,7.41,5.96,9.27c-2.98,1.85-6.71,1.85-8.2,5.19c-1.49,3.34-0.75,9.27,0.75,9.64
		c1.49,0.37,13.04-0.74,21.24-2.59l2.98-1.11c0,0,6.71-0.37,8.57-1.85c1.86-1.49-0.75-6.67-4.47-12.98
		c-3.73-6.3-8.94-12.24-17.52-17.8c-8.57-5.56-23.48-27.43-23.48-27.43l-53.29-75.63C129.01,462.09,123.8,430.57,105.54,456.15z"/>
	<path class="st10" d="M68.29,293.97c0,0,5.47-3.71,13.42-3.71s16.89,3.96,20.87,17.55c0,0,1.99,0.49,1.99,3.96
		c0,3.46,0,7.41,0,7.41s1.99,1.48,4.22,4.45c2.24,2.96,5.96,4.45,5.71,1.73c-0.25-2.72-4.97-10.14-5.22-12.11
		c-0.25-1.98,2.98-2.72,4.22,0.49c1.24,3.21,5.71,12.61,6.71,10.87c0.99-1.73-5.22-13.1-5.22-14.09c0-0.99,2.24-1.98,3.73,1.98
		c1.49,3.96,4.97,11.86,5.71,10.14c0.75-1.73-1.99-10.63,0-11.12c1.99-0.49,1.99-0.25,2.73,3.21c0.75,3.46,1.74,7.91,3.23,9.89
		c1.49,1.98,2.98,5.68,2.98,5.68s4.47,0.25,8.2,3.96c3.73,3.71,2.98,14.83,2.73,16.81c-0.25,1.98,1.99,10.38-4.97,18.54
		c0,0-0.99,6.18,1.24,16.31c2.24,10.14,6.71,25.7,9.44,28.42c0,0-0.25,2.96-1.49,3.71c0,0,11.18,7.66,15.16,22.49
		c3.97,14.83-1.24,35.83-17.14,43.25l-11.92,1.49c0,0,10.19,11.86,11.68,19.03c1.49,7.16,5.47,20.51,7.2,25.7
		c0,0,0.99,3.21,2.98,4.2c1.99,0.99,2.73,2.22,3.48,5.19c0.75,2.96,5.96,10.38,8.94,11.12c2.98,0.74,8.2,1.73,11.43,6.43
		c3.23,4.69,0,6.92,2.24,14.34c2.24,7.41-0.5,13.84-0.99,14.58c-0.5,0.74-7.95,17.79-14.91,16.06c-6.96-1.73-6.96-8.65-6.96-12.61
		c0-3.95-2.98-16.81-2.98-16.81s-2.48-5.19-3.23-5.68c-0.75-0.49-9.69-4.94-8.45-16.06c0,0-4.72-14.83-20.62-30.89
		c-15.9-16.07-24.84-28.17-24.84-28.17l-7.45,2.47c0,0-0.5-3.95-2.98-8.65c-2.48-4.69-7.7-17.3-5.71-23.23
		c1.99-5.93,11.92-16.13,11.92-16.13s0.25-5.13-7.7-6.61c0,0-9.94,5.56-14.66,6.61c-4.72,1.05-9.94,0.19-11.43,0
		c-1.49-0.19-23.35-0.93-24.84-1.67c-1.49-0.74-4.46-8.65-4.84-10.38c-0.38-1.73,0-7.66,0-7.66s-0.7-5.44-0.17-5.69
		c0.54-0.25,1.28-1.24,1.28-2.22c0-0.99,0.5-2.47,0-4.2c-0.5-1.73-1.73-2.97-1.11-3.71c0.62-0.74,0-3.71,0-3.71s0.13-2.22,0-3.21
		c-0.13-0.99-1.61-1.98,0-2.22c1.61-0.25,2.11-1.73,2.11-2.97c0-1.24-1.98-13.1-2.85-14.09c-0.88-0.99-2.61-12.85,2.35-19.77
		c0,0,4.72-12.36,14.91-15.32c10.19-2.96,17.14-4.69,17.64-6.43l-0.25-1.98c0,0-7.2-8.65-8.94-22.24c-0.7-5.49-0.94-9.74,1.51-14.84
		c1.08-2.23,2.48-4.33,4.32-6.01C64.33,296.35,66.32,294.96,68.29,293.97z"/>
	<g>
		<path class="st11" d="M110.45,443.21c0.17,1.5-0.93,3.6-2.76,4.08c-3.76,0.99-3.28-4.72,0.12-5.55
			C109.52,441.32,110.33,442.1,110.45,443.21z"/>
		<path class="st11" d="M114.82,434.1c1.94-2.6,4.42-4.02,5.55-3.18c1.13,0.84,0.47,3.63-1.47,6.23c-1.94,2.6-4.42,4.02-5.55,3.18
			C112.22,439.49,112.88,436.7,114.82,434.1z"/>
		<path class="st11" d="M112.45,445.3c0.24-1.1,0.82-1.92,1.3-1.81c0.48,0.1,0.67,1.08,0.44,2.19c-0.24,1.11-0.82,1.92-1.3,1.82
			C112.41,447.38,112.21,446.4,112.45,445.3z"/>
		<path class="st11" d="M101.95,445.41c0.56-0.98,1.36-1.58,1.78-1.34c0.43,0.24,0.32,1.23-0.24,2.22
			c-0.56,0.98-1.36,1.58-1.78,1.34C101.28,447.39,101.39,446.39,101.95,445.41z"/>
	</g>
	<linearGradient id="SVGID_10_" gradientUnits="userSpaceOnUse" x1="118.4264" y1="458.341" x2="45.1552" y2="286.5152">
		<stop  offset="0" style="stop-color:#E52527;stop-opacity:0"/>
		<stop  offset="1" style="stop-color:#E52527"/>
	</linearGradient>
	<path class="st12" d="M68.29,293.97c0,0,5.47-3.71,13.42-3.71s16.89,3.96,20.87,17.55c0,0,1.99,0.49,1.99,3.96
		c0,3.46,0,7.41,0,7.41s1.99,1.48,4.22,4.45c2.24,2.96,5.96,4.45,5.71,1.73c-0.25-2.72-4.97-10.14-5.22-12.11
		c-0.25-1.98,2.98-2.72,4.22,0.49c1.24,3.21,5.71,12.61,6.71,10.87c0.99-1.73-5.22-13.1-5.22-14.09c0-0.99,2.24-1.98,3.73,1.98
		c1.49,3.96,4.97,11.86,5.71,10.14c0.75-1.73-1.99-10.63,0-11.12c1.99-0.49,1.99-0.25,2.73,3.21c0.75,3.46,1.74,7.91,3.23,9.89
		c1.49,1.98,2.98,5.68,2.98,5.68s4.47,0.25,8.2,3.96c3.73,3.71,2.98,14.83,2.73,16.81c-0.25,1.98,1.99,10.38-4.97,18.54
		c0,0-0.99,6.18,1.24,16.31c2.24,10.14,6.71,25.7,9.44,28.42c0,0-0.25,2.96-1.49,3.71c0,0,11.18,7.66,15.16,22.49
		c3.97,14.83-1.24,35.83-17.14,43.25l-11.92,1.49c0,0,10.19,11.86,11.68,19.03c1.49,7.16,5.47,20.51,7.2,25.7
		c0,0,0.99,3.21,2.98,4.2c1.99,0.99,2.73,2.22,3.48,5.19c0.75,2.96,5.96,10.38,8.94,11.12c2.98,0.74,8.2,1.73,11.43,6.43
		c3.23,4.69,0,6.92,2.24,14.34c2.24,7.41-0.5,13.84-0.99,14.58c-0.5,0.74-7.95,17.79-14.91,16.06c-6.96-1.73-6.96-8.65-6.96-12.61
		c0-3.95-2.98-16.81-2.98-16.81s-2.48-5.19-3.23-5.68c-0.75-0.49-9.69-4.94-8.45-16.06c0,0-4.72-14.83-20.62-30.89
		c-15.9-16.07-24.84-28.17-24.84-28.17l-7.45,2.47c0,0-0.5-3.95-2.98-8.65c-2.48-4.69-7.7-17.3-5.71-23.23
		c1.99-5.93,11.92-16.13,11.92-16.13s0.25-5.13-7.7-6.61c0,0-9.94,5.56-14.66,6.61c-4.72,1.05-9.94,0.19-11.43,0
		c-1.49-0.19-23.35-0.93-24.84-1.67c-1.49-0.74-4.46-8.65-4.84-10.38c-0.38-1.73,0-7.66,0-7.66s-0.7-5.44-0.17-5.69
		c0.54-0.25,1.28-1.24,1.28-2.22c0-0.99,0.5-2.47,0-4.2c-0.5-1.73-1.73-2.97-1.11-3.71c0.62-0.74,0-3.71,0-3.71s0.13-2.22,0-3.21
		c-0.13-0.99-1.61-1.98,0-2.22c1.61-0.25,2.11-1.73,2.11-2.97c0-1.24-1.98-13.1-2.85-14.09c-0.88-0.99-2.61-12.85,2.35-19.77
		c0,0,4.72-12.36,14.91-15.32c10.19-2.96,17.14-4.69,17.64-6.43l-0.25-1.98c0,0-7.2-8.65-8.94-22.24c-0.7-5.49-0.94-9.74,1.51-14.84
		c1.08-2.23,2.48-4.33,4.32-6.01C64.33,296.35,66.32,294.96,68.29,293.97z"/>
	<path class="st13" d="M83.19,302.83c0.57,0.85,0.54,1.87-0.06,2.26c-0.6,0.4-1.55,0.02-2.12-0.83c-0.57-0.85-0.54-1.86,0.06-2.26
		C81.67,301.6,82.62,301.97,83.19,302.83z"/>
	<path class="st13" d="M94.01,296.45c0.27,0.44,0.23,0.94-0.07,1.13c-0.31,0.18-0.77-0.02-1.03-0.46c-0.27-0.44-0.23-0.94,0.07-1.13
		C93.28,295.81,93.74,296.01,94.01,296.45z"/>
	<path class="st13" d="M79.17,298.83c0.47,0.21,0.73,0.64,0.58,0.96c-0.15,0.33-0.64,0.43-1.11,0.22c-0.47-0.21-0.73-0.64-0.58-0.96
		C78.2,298.72,78.7,298.62,79.17,298.83z"/>
	<path class="st13" d="M95.38,301.26c-0.15,1.01-0.85,1.74-1.57,1.63c-0.71-0.11-1.16-1.02-1.01-2.03c0.15-1.01,0.86-1.74,1.57-1.63
		C95.08,299.34,95.53,300.25,95.38,301.26z"/>
	<path class="st13" d="M68.09,321.02c0.78,2.17,0.48,4.26-0.69,4.68c-1.16,0.42-2.74-1-3.52-3.17c-0.78-2.17-0.48-4.26,0.69-4.68
		C65.73,317.43,67.3,318.85,68.09,321.02z"/>
	<g>
		<path class="st13" d="M67.45,321.67L66,320.38c0.55-0.61,5.43-6.01,8.08-6.62c0.5-0.12,1.76-0.49,3.49-1
			c6.58-1.94,20.18-5.96,26.24-5.93l-0.02,1.94c-5.75,0.02-19.19,3.94-25.68,5.85c-1.79,0.53-3.09,0.91-3.61,1.03
			C72.97,316.01,69.36,319.53,67.45,321.67z"/>
	</g>
	<path class="st13" d="M67.47,322.88c0,0,3.73-5.19,7.7-5.81c3.98-0.62,20.87-7.41,30.06-6.92c0,0,0.99,11.24,0,16.68
		c0,0-9.44,7.16-35.15,0.99L67.47,322.88z"/>
	<g>
		<path class="st13" d="M86.12,370.8l5.75-1.68l8.52,28.84l5.68-1.66l1.65,5.57l-18.99,5.55l-1.64-5.57l5.78-1.69l-5.95-20.14
			c-1.19,2.27-2.69,4.25-4.52,5.96l-1.97-6.67C83.01,376.81,84.91,373.98,86.12,370.8z"/>
	</g>
	<linearGradient id="SVGID_11_" gradientUnits="userSpaceOnUse" x1="62.1962" y1="288.0664" x2="83.2736" y2="357.5558">
		<stop  offset="0" style="stop-color:#E52527;stop-opacity:0"/>
		<stop  offset="1" style="stop-color:#E52527"/>
	</linearGradient>
	<path class="st14" d="M73.22,291.67l11.07,18.45l-24.62-2.32l-1.34,17.96C58.33,325.77,47.07,298.72,73.22,291.67z"/>
	<linearGradient id="SVGID_12_" gradientUnits="userSpaceOnUse" x1="80.4227" y1="319.3517" x2="96.6515" y2="372.8561">
		<stop  offset="0" style="stop-color:#E52527;stop-opacity:0"/>
		<stop  offset="1" style="stop-color:#E52527"/>
	</linearGradient>
	<path class="st15" d="M70.08,327.82l18.06,17.31l8.52-14.8C96.66,330.34,80.09,331.11,70.08,327.82z"/>
	<linearGradient id="SVGID_13_" gradientUnits="userSpaceOnUse" x1="43.2428" y1="293.2488" x2="91.3832" y2="451.9613">
		<stop  offset="0" style="stop-color:#E52527;stop-opacity:0"/>
		<stop  offset="1" style="stop-color:#E52527"/>
	</linearGradient>
	<polygon class="st16" points="59.6,308.72 79.79,325.77 71.22,349.25 84.91,364.03 38.03,364.03 40.37,354.27 40.45,338.35 
		50.63,306.84 	"/>
	<linearGradient id="SVGID_14_" gradientUnits="userSpaceOnUse" x1="45.7897" y1="329.0651" x2="82.4879" y2="450.0541">
		<stop  offset="0" style="stop-color:#E52527;stop-opacity:0"/>
		<stop  offset="1" style="stop-color:#E52527"/>
	</linearGradient>
	<path class="st17" d="M23,348.04l43.05-5.14l16.05,10.96c0,0-21.05,32.48-22.02,34.42c-0.97,1.93-32.47-24.24-32.47-24.24
		L23,348.04z"/>
	<linearGradient id="SVGID_15_" gradientUnits="userSpaceOnUse" x1="32.8243" y1="347.0099" x2="57.0517" y2="426.8843">
		<stop  offset="0" style="stop-color:#E52527;stop-opacity:0"/>
		<stop  offset="1" style="stop-color:#E52527"/>
	</linearGradient>
	<path class="st18" d="M45.29,351.19l7.26,17.93l-13.83,3.97c0,0-0.94,13.23-0.7,14.2c0.24,0.97-6.87-2.88-6.87-2.88
		s-2.09-10.93,2.27-19.17C33.42,365.24,39.24,354.1,45.29,351.19z"/>
	<linearGradient id="SVGID_16_" gradientUnits="userSpaceOnUse" x1="26.7356" y1="360.1603" x2="77.1406" y2="526.339">
		<stop  offset="0" style="stop-color:#E52527;stop-opacity:0"/>
		<stop  offset="1" style="stop-color:#E52527"/>
	</linearGradient>
	<polygon class="st19" points="60.08,388.27 38.03,399.17 72.43,416.13 36.74,444.47 23,442.54 20.34,407.42 24.21,387.45 
		31.15,384.42 38.03,387.29 38.72,373.1 	"/>
	<linearGradient id="SVGID_17_" gradientUnits="userSpaceOnUse" x1="63.0614" y1="423.5726" x2="63.0614" y2="423.5726">
		<stop  offset="0" style="stop-color:#E52527;stop-opacity:0"/>
		<stop  offset="1" style="stop-color:#E52527"/>
	</linearGradient>
	<path class="st20" d="M63.06,423.57"/>
	<linearGradient id="SVGID_18_" gradientUnits="userSpaceOnUse" x1="75.2296" y1="458.6067" x2="60.2069" y2="381.0701">
		<stop  offset="0" style="stop-color:#E52527;stop-opacity:0"/>
		<stop  offset="1" style="stop-color:#E52527"/>
	</linearGradient>
	<polygon class="st21" points="63.06,423.57 78.02,427.72 103.82,421.61 70.08,446.56 36.74,444.47 	"/>
	<path class="st11" d="M52.88,402c-3.52,3.01-1.55,15.05,7.2,20.2c8.75,5.15,20.88,9.64,33.04,0.3c0,0,2.55-5.79-3.71-13.32
		c-2.84-3.41-6.09-5.71-9.1-7.32c-2.61-1.33-10.03-4.33-21.19-2.27C56.58,400.16,54.17,400.9,52.88,402z"/>
	<linearGradient id="SVGID_19_" gradientUnits="userSpaceOnUse" x1="50.9436" y1="411.2846" x2="84.0043" y2="411.2846">
		<stop  offset="0" style="stop-color:#E52527;stop-opacity:0"/>
		<stop  offset="1" style="stop-color:#E52527"/>
	</linearGradient>
	<path class="st22" d="M75.41,400.1c-3.8-1.07-9.41-1.83-16.57-0.51c-2.55,0.57-4.96,1.31-6.25,2.41c-3.52,3.01-1.55,15.05,7.2,20.2
		c0.72,0.43,1.47,0.84,2.24,1.25c0.38,0.08,0.74,0.16,1.12,0.23L84,413.41L75.41,400.1z"/>
	<linearGradient id="SVGID_20_" gradientUnits="userSpaceOnUse" x1="52.5506" y1="409.9295" x2="93.3574" y2="409.9295">
		<stop  offset="0" style="stop-color:#E52527;stop-opacity:0"/>
		<stop  offset="1" style="stop-color:#E52527"/>
	</linearGradient>
	<path class="st23" d="M80.04,401.86c-2.61-1.33-10.03-4.33-21.19-2.27c-2.55,0.57-4.96,1.31-6.25,2.41
		c-0.02,0.02-0.03,0.04-0.05,0.06c2.73,0.66,30.97,7.67,40.69,18.91c0.34-2.2,0.23-6.58-4.1-11.79
		C86.3,405.77,83.05,403.47,80.04,401.86z"/>
	<linearGradient id="SVGID_21_" gradientUnits="userSpaceOnUse" x1="153.5606" y1="404.9211" x2="66.9757" y2="373.5826">
		<stop  offset="0" style="stop-color:#E52527;stop-opacity:0"/>
		<stop  offset="1" style="stop-color:#E52527"/>
	</linearGradient>
	<polygon class="st24" points="139.34,369.59 130.1,381.4 130.1,400.46 115.89,417.21 134.63,428.25 148.53,418.03 155.95,411.28 
		146.26,400.46 	"/>
	<linearGradient id="SVGID_22_" gradientUnits="userSpaceOnUse" x1="141.8509" y1="387.6056" x2="105.3779" y2="374.4045">
		<stop  offset="0" style="stop-color:#E52527;stop-opacity:0"/>
		<stop  offset="1" style="stop-color:#E52527"/>
	</linearGradient>
	<polygon class="st25" points="130.1,400.46 143.55,388.37 139.34,369.59 130.1,381.4 	"/>
	<linearGradient id="SVGID_23_" gradientUnits="userSpaceOnUse" x1="178.7022" y1="413.0807" x2="57.6611" y2="369.2711">
		<stop  offset="0" style="stop-color:#E52527;stop-opacity:0"/>
		<stop  offset="1" style="stop-color:#E52527"/>
	</linearGradient>
	<polygon class="st26" points="134.3,407.42 172.1,382.37 193.1,391.41 151.27,431.48 	"/>
	<linearGradient id="SVGID_24_" gradientUnits="userSpaceOnUse" x1="142.398" y1="509.4713" x2="58.559" y2="493.9635">
		<stop  offset="0" style="stop-color:#E52527;stop-opacity:0"/>
		<stop  offset="1" style="stop-color:#E52527"/>
	</linearGradient>
	<path class="st27" d="M134.62,485.25l-15.18,10.84l27.62,20.84l-3.51,13.57l7.72,3.39l5.21,0.3
		C156.48,534.19,149.32,494.77,134.62,485.25z"/>
	<linearGradient id="SVGID_25_" gradientUnits="userSpaceOnUse" x1="136.288" y1="397.0883" x2="78.7801" y2="316.965">
		<stop  offset="0" style="stop-color:#E52527;stop-opacity:0"/>
		<stop  offset="1" style="stop-color:#E52527"/>
	</linearGradient>
	<polygon class="st28" points="98.12,364.03 122.67,373.1 117.83,364.03 139.34,369.59 130.1,381.4 109.43,391.41 	"/>
	<linearGradient id="SVGID_26_" gradientUnits="userSpaceOnUse" x1="82.957" y1="314.0061" x2="145.3301" y2="322.3924">
		<stop  offset="0" style="stop-color:#E52527;stop-opacity:0"/>
		<stop  offset="1" style="stop-color:#E52527"/>
	</linearGradient>
	<polygon class="st29" points="96.66,305.25 96.66,330.34 105.24,326.84 105.24,310.15 100.22,301.84 	"/>
</g>
<polygon class="st30" points="105.91,338.69 107.71,341.62 107.71,360.9 106.41,360.94 106.41,340.87 105,338.92 "/>
<g>
	<g>
		<g class="st31">
			
				<linearGradient id="SVGID_27_" gradientUnits="userSpaceOnUse" x1="1010.3354" y1="-724.9379" x2="947.1547" y2="-693.7632" gradientTransform="matrix(0.2475 0.9689 -0.9689 0.2475 -674.1783 -478.1417)">
				<stop  offset="0" style="stop-color:#E52527;stop-opacity:0"/>
				<stop  offset="1" style="stop-color:#E52527"/>
			</linearGradient>
			<polygon class="st32" points="278.55,283.95 304.45,286.64 291.86,309.59 239.87,333.71 222.24,321.23 			"/>
			
				<linearGradient id="SVGID_28_" gradientUnits="userSpaceOnUse" x1="1033.1213" y1="-713.1071" x2="979.4999" y2="-689.8295" gradientTransform="matrix(0.2475 0.9689 -0.9689 0.2475 -674.1783 -478.1417)">
				<stop  offset="0" style="stop-color:#E52527;stop-opacity:0"/>
				<stop  offset="1" style="stop-color:#E52527"/>
			</linearGradient>
			<polygon class="st33" points="239.47,272.37 240.57,250.87 319.38,337.31 264.4,327.04 250.11,367.26 218.67,346.57 			"/>
			
				<linearGradient id="SVGID_29_" gradientUnits="userSpaceOnUse" x1="1053.6135" y1="-733.4199" x2="973.9031" y2="-591.2695" gradientTransform="matrix(0.2475 0.9689 -0.9689 0.2475 -674.1783 -478.1417)">
				<stop  offset="0" style="stop-color:#E52527;stop-opacity:0"/>
				<stop  offset="1" style="stop-color:#E52527"/>
			</linearGradient>
			<polygon class="st34" points="277.8,305.28 278.3,406.86 202.41,331.29 			"/>
			
				<linearGradient id="SVGID_30_" gradientUnits="userSpaceOnUse" x1="1011.9567" y1="-697.2238" x2="1013.8474" y2="-670.5178" gradientTransform="matrix(0.2475 0.9689 -0.9689 0.2475 -674.1783 -478.1417)">
				<stop  offset="0" style="stop-color:#E52527;stop-opacity:0"/>
				<stop  offset="1" style="stop-color:#E52527"/>
			</linearGradient>
			<polygon class="st35" points="247.28,277.07 246.85,331.14 263.14,339.16 263.92,379.98 188.83,310.98 			"/>
		</g>
		<g class="st31">
			
				<linearGradient id="SVGID_31_" gradientUnits="userSpaceOnUse" x1="860.8159" y1="-585.1096" x2="797.6308" y2="-553.9328" gradientTransform="matrix(0.2475 0.9689 -0.9689 0.2475 -674.1783 -478.1417)">
				<stop  offset="0" style="stop-color:#E52527;stop-opacity:0"/>
				<stop  offset="1" style="stop-color:#E52527"/>
			</linearGradient>
			<polygon class="st36" points="106.07,173.69 131.96,176.38 119.38,199.33 67.38,223.45 49.76,210.96 			"/>
			
				<linearGradient id="SVGID_32_" gradientUnits="userSpaceOnUse" x1="883.5988" y1="-573.2784" x2="829.9772" y2="-550.0009" gradientTransform="matrix(0.2475 0.9689 -0.9689 0.2475 -674.1783 -478.1417)">
				<stop  offset="0" style="stop-color:#E52527;stop-opacity:0"/>
				<stop  offset="1" style="stop-color:#E52527"/>
			</linearGradient>
			<polygon class="st37" points="66.98,162.1 68.08,140.61 146.9,227.05 91.91,216.78 77.62,256.99 46.18,236.31 			"/>
			
				<linearGradient id="SVGID_33_" gradientUnits="userSpaceOnUse" x1="904.0942" y1="-593.5902" x2="824.3831" y2="-451.4385" gradientTransform="matrix(0.2475 0.9689 -0.9689 0.2475 -674.1783 -478.1417)">
				<stop  offset="0" style="stop-color:#E52527;stop-opacity:0"/>
				<stop  offset="1" style="stop-color:#E52527"/>
			</linearGradient>
			<polygon class="st38" points="105.32,195.02 105.81,296.6 29.93,221.03 			"/>
			
				<linearGradient id="SVGID_34_" gradientUnits="userSpaceOnUse" x1="862.4359" y1="-557.3948" x2="864.3265" y2="-530.6888" gradientTransform="matrix(0.2475 0.9689 -0.9689 0.2475 -674.1783 -478.1417)">
				<stop  offset="0" style="stop-color:#E52527;stop-opacity:0"/>
				<stop  offset="1" style="stop-color:#E52527"/>
			</linearGradient>
			<polygon class="st39" points="74.79,166.81 74.36,220.88 90.65,228.9 91.43,269.72 16.34,200.71 			"/>
		</g>
		<path class="st11" d="M230.17,303.48c0,0,8.51-1.74,11.49-2.6c2.98-0.85,9.18-6.18,9.18-6.18s11.83-5.73,13.61-5.51
			c1.79,0.23,9.43-1.74,10.68-3.03c1.25-1.3,28.71-15.95,31.69-15.88c2.98,0.07,8.24-1.58,9.97-1.14c1.73,0.44,8.54,2.64,8.12,0.69
			c-0.42-1.95-5.39-4.14-6.36-4.85c-0.97-0.71,5.53-4.81,9.2-5.95c3.67-1.14,7.73-2.64,5.63-5.24l-5.85,0.35
			c0,0,7.17-4.62,6.26-6.47c-0.91-1.84-3.08-1.47-8.46,2.45c-5.38,3.93-7.55,5.22-9.12,5.05c-1.57-0.17-8.83,2.12-10.95,3.2
			c-2.12,1.07-10.68,3.04-11.92,3.41c-1.25,0.37-18.27,4.79-22.49,5.09c-4.22,0.31-9.39,4.29-12.59,6
			c-3.2,1.72-13.13,5.4-16.14,2.79c-3.02-2.61-6.19-8.26-8.24-9.24c-2.05-0.98-12.38-2.93-29.91,7.12c0,0-0.47-3.58-0.74-4.34
			c-0.27-0.76,2.46-6.05,2.1-8.22c-0.37-2.17-2.75-14.52-11.66-19.33c-8.91-4.81-21.88-7.22-28.81,3.7l-1.8,1.63
			c0,0-5.53,1.81-6.68,3.59l-1.2,13.74c0,0-1.64,3.73-1.7,4.86c-0.06,1.14,4.32,12.85,4.32,12.85s2.49,1.09,1.99,2.12
			c-0.49,1.03-1.95-0.5-4.65-0.73c-2.71-0.23-13.71,2.26-16.47,3.17c0,0-1.02-1.41-5.39-4.14c-4.37-2.73-9.46-3.56-11.78-5.31
			c-2.32-1.74-3.37-7.54-9.79-14.01c-6.41-6.47-21.17-22.67-23.16-25.71c-1.99-3.04,1.34-7.98,0.04-8.29
			c-1.3-0.32-5.01-4.72-4.14-6.34c0.87-1.62,14.93,2.89,20.3,0.8c5.37-2.08,8.04-17.07-0.09-26.74
			c-8.13-9.67-20.48-19.96-38.58-13.99c0,0-5.39,5.77-1.16,17.21c4.22,11.44,13.07,17.38,16.31,20.05c0,0-0.07,2.98-1.85,2.75
			c-1.79-0.22-4.26-3.16-4.63-4.41c-0.37-1.24-2.35-6.13-3.28-5.21c-0.92,0.92-1.15,2.7-1.15,2.7s-5.27-6.41-6.84-8.42
			s-3.19-3.12-4.19-2.22c-1,0.9-3.96-2.85-4.02-0.8c-0.06,2.06,7.26,9.45,9.26,11.57c1.99,2.12,7.69,11.41,8.76,14.44
			c1.07,3.04,4.55,11.06,6.97,14.21c2.42,3.15,16.97,29.2,21.39,33.55c4.42,4.35,12.54,15.87,15.88,18.1
			c3.35,2.24,7.38,8.1,9.59,10.28c2.21,2.18,0.5,7.96,7.79,11.89c7.29,3.93,7.29,3.93,7.29,3.93s6.59,3.98,9.55,5.89
			c2.97,1.91,18.73,22.28,23.1,25.93c4.37,3.65,6.39,11.99,7.46,13.19c1.08,1.2,5.33,6.2,8.73,8.22c0,0,1.11,5.58,5.59,7.88
			c0,0,0.61,8.45,9.46,13.47c0,0-0.24,5.47,1.16,7.2c1.4,1.74,10,14.99,10.53,16.51c0.53,1.52,4.67,8.79,8.81,14.22
			c4.14,5.43,12.66,12.67,15.63,14.58c2.97,1.91,5.12,5.22,7.38,8.1c2.26,2.88,7.05,9.39,18.54,16.7c0,0,5.6,6.96,6.08,8.69
			s0.08,6.01,2.99,9.97c2.9,3.97,8.06,12.65,10.37,15.32c2.32,2.66,8.09,7.13,10.81,2.76c2.73-4.37-3.39-16.53-6.35-20.28
			c-2.96-3.75-3.96-8.84-4.66-11.55c-0.69-2.71-5.2-10.31-7.47-11.35c-2.27-1.04-7.39-5.34-9.22-8.11
			c-1.83-2.77-3.96-8.84-5.41-11.28c-1.45-2.44-6.52-18.71-8.99-21.64c-2.48-2.93-6.52-16.86-4.45-21.4
			c2.08-4.54,9.7-12.73,22.63-11.04c12.93,1.68,20.41-0.56,23.13-4.01c2.72-3.45,2.1-8.22,2.1-8.22c-0.31-2.38-0.25-3.52-0.31-4.22
			c-0.05-0.7,0.11-1.35,0.39-3.35c0.28-2,0.84-5.09,1.06-5.95c0.22-0.86,0.66-2.59,0.66-2.59s11.17-3.14,14.79-1.99
			c3.62,1.15,8.81,2.48,9.05-1.15c0.23-3.62-1.2-8.83-11.1-11.58c-9.89-2.75-10.98-2.11-13.04-2.17
			c-2.06-0.07-14.88-2.18-14.37,4.86c0,0-1.32,4.27-1.11,6.16c0.21,1.9-0.88,2.54-1.31,3.35c-0.44,0.81-1.65,4.65-1.65,4.65
			s-0.7,0.05-3.57-0.45c-2.87-0.5-4.75-3.06-4.75-3.06s6.73-2.89,4.73-5.01c-1.99-2.12-3.6-5.75-9.66-5.46
			c-6.06,0.3-15.81,0.57-15.81-0.34c0-0.92,0.83-3.24-0.9-3.69c-1.73-0.44-4.54-1.16-4.54-1.16s-2.1-1.69-3.35-2.23
			c-1.24-0.55-4.59-2.78-7.5-5.83c-2.91-3.04-4.56-8.3-5.58-11.55c-1.01-3.25-1.2-9.75-1.95-11.32
			C229.13,316.58,231.45,307.5,230.17,303.48z"/>
		
			<linearGradient id="SVGID_35_" gradientUnits="userSpaceOnUse" x1="523.1201" y1="219.6228" x2="334.4043" y2="58.3418" gradientTransform="matrix(0.969 0.2471 -0.2471 0.969 -161.2959 25.3271)">
			<stop  offset="0" style="stop-color:#E52527;stop-opacity:0"/>
			<stop  offset="1" style="stop-color:#E52527"/>
		</linearGradient>
		<path class="st40" d="M230.26,303.13c0,0,8.5-1.73,11.48-2.58s9.17-6.15,9.17-6.15s11.82-5.7,13.6-5.48
			c1.79,0.23,9.42-1.72,10.67-3.01c1.25-1.29,28.69-15.84,31.66-15.77c2.98,0.07,8.23-1.57,9.96-1.13c1.73,0.44,8.54,2.64,8.12,0.7
			c-0.43-1.94-5.4-4.13-6.37-4.84c-0.97-0.7,5.52-4.78,9.19-5.91c3.66-1.13,7.73-2.62,5.63-5.22l-5.85,0.34c0,0,7.16-4.6,6.25-6.43
			c-0.91-1.84-3.08-1.47-8.45,2.43c-5.37,3.91-7.54,5.19-9.11,5.02c-1.57-0.17-8.83,2.1-10.94,3.17
			c-2.11,1.07-10.67,3.01-11.92,3.38c-1.25,0.37-18.25,4.74-22.48,5.04c-4.22,0.3-9.38,4.26-12.58,5.97
			c-3.2,1.71-13.12,5.37-16.14,2.76c-3.02-2.6-6.19-8.23-8.25-9.21c-2.05-0.98-12.38-2.93-29.9,7.05c0,0-0.47-3.56-0.74-4.32
			c-0.27-0.76,2.46-6.02,2.09-8.18c-0.37-2.16-2.76-14.46-11.67-19.26c-8.91-4.8-21.89-7.22-28.8,3.65l-1.8,1.62
			c0,0-5.53,1.8-6.67,3.57l-1.19,13.68c0,0-1.64,3.71-1.7,4.84c-0.06,1.13,4.34,12.8,4.34,12.8s2.49,1.09,1.99,2.11
			c-0.49,1.02-1.95-0.5-4.65-0.73c-2.7-0.23-13.7,2.24-16.46,3.14c0,0-1.02-1.41-5.4-4.13c-4.37-2.72-9.46-3.56-11.78-5.3
			c-2.32-1.74-3.38-7.51-9.8-13.96c-6.42-6.45-21.19-22.6-23.18-25.63c-1.99-3.03,1.33-7.94,0.03-8.26
			c-1.3-0.32-5.02-4.71-4.15-6.32c0.87-1.61,14.93,2.89,20.29,0.82c5.36-2.07,8.02-16.99-0.12-26.63
			c-8.14-9.64-20.49-19.9-38.59-13.97c0,0-5.38,5.74-1.14,17.14c4.23,11.4,13.09,17.33,16.33,19.99c0,0-0.07,2.96-1.85,2.74
			c-1.79-0.22-4.26-3.15-4.64-4.39c-0.37-1.24-2.36-6.1-3.28-5.19c-0.92,0.91-1.15,2.69-1.15,2.69s-5.28-6.39-6.84-8.39
			c-1.56-2-3.19-3.11-4.19-2.21c-1,0.89-3.96-2.84-4.02-0.8c-0.06,2.05,7.27,9.42,9.27,11.54c1.99,2.11,7.7,11.36,8.77,14.39
			c1.07,3.02,4.56,11.02,6.98,14.16c2.42,3.14,17,29.1,21.42,33.44c4.42,4.34,12.55,15.81,15.9,18.04c3.35,2.23,7.38,8.07,9.6,10.24
			c2.21,2.17,0.51,7.93,7.8,11.85c7.29,3.92,7.29,3.92,7.29,3.92s6.59,3.97,9.56,5.88c2.97,1.9,18.75,22.21,23.12,25.85
			c4.37,3.64,6.4,11.95,7.47,13.14c1.08,1.19,5.34,6.17,8.74,8.19c0,0,1.12,5.56,5.6,7.85c0,0,0.62,8.41,9.48,13.43
			c0,0-0.24,5.44,1.17,7.18c1.4,1.73,10.01,14.94,10.55,16.45c0.54,1.51,4.68,8.76,8.82,14.18c4.15,5.41,12.67,12.63,15.64,14.54
			c2.97,1.91,5.12,5.21,7.38,8.08c2.26,2.87,7.06,9.37,18.56,16.66c0,0,5.6,6.93,6.08,8.66c0.48,1.73,0.09,5.99,2.99,9.94
			c2.91,3.95,8.07,12.61,10.39,15.26c2.32,2.66,8.09,7.11,10.81,2.76c2.72-4.35-3.4-16.46-6.37-20.2
			c-2.96-3.74-3.97-8.81-4.67-11.51c-0.69-2.7-5.21-10.27-7.48-11.31c-2.27-1.04-7.39-5.32-9.22-8.08
			c-1.83-2.76-3.97-8.81-5.42-11.24c-1.45-2.44-6.53-18.64-9.01-21.56c-2.48-2.93-6.54-16.8-4.47-21.32
			c2.07-4.52,9.68-12.67,22.61-10.98c12.93,1.69,20.4-0.53,23.12-3.96c2.72-3.44,2.09-8.18,2.09-8.18c-0.32-2.37-0.26-3.5-0.31-4.21
			c-0.05-0.7,0.11-1.35,0.39-3.34c0.28-1.99,0.83-5.06,1.05-5.92c0.22-0.86,0.66-2.58,0.66-2.58s11.16-3.12,14.78-1.96
			c3.62,1.15,8.81,2.48,9.04-1.13c0.23-3.61-1.21-8.79-11.11-11.54c-9.89-2.75-10.98-2.11-13.03-2.18
			c-2.06-0.07-14.88-2.19-14.36,4.83c0,0-1.31,4.25-1.1,6.14c0.21,1.89-0.88,2.53-1.31,3.34c-0.44,0.81-1.64,4.62-1.64,4.62
			s-0.7,0.05-3.57-0.45c-2.87-0.5-4.75-3.05-4.75-3.05s6.72-2.87,4.73-4.98c-1.99-2.11-3.6-5.74-9.67-5.45
			c-6.06,0.29-15.8,0.56-15.8-0.36c0-0.92,0.82-3.23-0.91-3.67c-1.73-0.44-4.54-1.16-4.54-1.16s-2.1-1.68-3.35-2.23
			c-1.24-0.55-4.59-2.77-7.5-5.81c-2.91-3.04-4.57-8.27-5.59-11.51c-1.02-3.24-1.21-9.71-1.96-11.28
			C229.23,316.17,231.54,307.13,230.26,303.13z"/>
		
			<linearGradient id="SVGID_36_" gradientUnits="userSpaceOnUse" x1="398.7321" y1="154.077" x2="362.7074" y2="143.5468" gradientTransform="matrix(0.969 0.2471 -0.2471 0.969 -161.2959 25.3271)">
			<stop  offset="0" style="stop-color:#E52527;stop-opacity:0"/>
			<stop  offset="1" style="stop-color:#E52527"/>
		</linearGradient>
		<path class="st41" d="M170.35,239.87l20.91,10.03l-9.42,0.14l3.51,15.15l-13.28,7.53l-14.19,8.98l5.21-34.9
			C163.08,246.79,168.17,240.47,170.35,239.87z"/>
		
			<linearGradient id="SVGID_37_" gradientUnits="userSpaceOnUse" x1="388.0198" y1="155.8625" x2="368.6028" y2="128.7965" gradientTransform="matrix(0.969 0.2471 -0.2471 0.969 -161.2959 25.3271)">
			<stop  offset="0" style="stop-color:#E52527;stop-opacity:0"/>
			<stop  offset="1" style="stop-color:#E52527"/>
		</linearGradient>
		<path class="st42" d="M176.94,246.25l0.78-5.09l7.15-3.01c0,0-10.39-2.2-14.43,1.38c-4.04,3.58-7.35,7.26-7.35,7.26
			s-4.77,1.24-6.67,3.57l-0.56,6.51l-0.62,7.18l-1.7,4.84l4.34,12.8l21.37,3.18l-14.27-11.51l3.44-16.84L176.94,246.25z"/>
		<g>
			<path class="st13" d="M182.56,327.46l-5.94,0.57c-3.5-9.88-2.84-15.92,2-18.1c2.61-1.18,5.16-0.85,7.64,0.99
				c2.48,1.84,4.54,4.54,6.16,8.09c1.67,3.66,2.55,7.57,2.64,11.75c0.09,4.18-0.87,9.54-2.89,16.09l11.11-5.02l3.48,8.7l-16.46,7.43
				l-3.89-8.51c1.59-8.95,2.32-15.1,2.2-18.44c-0.12-3.34-0.76-6.28-1.91-8.81c-1.65-3.61-3.28-5.06-4.89-4.33
				c-0.97,0.44-1.35,1.47-1.14,3.09C180.87,322.59,181.5,324.76,182.56,327.46z"/>
			<path class="st13" d="M197.07,301.94l4.31-1.95l16.82,36.8l4.26-1.92l3.25,7.11l-14.24,6.43l-3.25-7.11l4.33-1.96l-11.75-25.7
				c-0.25,2.83-0.86,5.3-1.84,7.41l-3.89-8.51C196.44,309.46,197.1,305.93,197.07,301.94z"/>
		</g>
		<g>
			<path class="st13" d="M158.03,251.75c0,0,13.04-7.85,20.9-4.94c0,0,7.83,8.14,9.76,13.35c0,0,0.27,1.35-1.67,1.2
				c-1.94-0.15-19.84-7.64-30.47-0.54L158.03,251.75z"/>
			<path class="st13" d="M156.16,263.27c0,0,7.91-3.08,14-1.65l-0.15,11.64c0,0-0.1,1.29-0.81,1.61c-0.71,0.32-6.78,1.51-6.78,1.51
				s-0.85,0.52-1.93-0.86C159.41,274.14,156.16,263.27,156.16,263.27z"/>
			<path class="st13" d="M172.42,261.96l-0.36,10.76c0,0-0.4,1.79,1.25,2.38c1.65,0.59,7.55,0.46,7.55,0.46s0.99-0.06,1.23-1.54
				c0.24-1.49,1.66-10.22,1.66-10.22L172.42,261.96z"/>
			<path class="st13" d="M185.29,266.07c1.67,1.78,3.35,3.55,5.02,5.33c0,0-1.78-3.65,0.25-5.04c-0.79-0.13-1.57-0.25-2.36-0.38
				C187.85,265.91,184.52,265.26,185.29,266.07z"/>
			<path class="st13" d="M184.69,268.83l-0.89,5.49c0,0-0.39,1.32,0.34,1.85c0.73,0.53,4.32,0.05,5.72-2.01L184.69,268.83z"/>
		</g>
		
			<linearGradient id="SVGID_38_" gradientUnits="userSpaceOnUse" x1="384.9465" y1="168.7738" x2="411.1341" y2="197.8712" gradientTransform="matrix(0.969 0.2471 -0.2471 0.969 -161.2959 25.3271)">
			<stop  offset="0" style="stop-color:#E52527;stop-opacity:0"/>
			<stop  offset="1" style="stop-color:#E52527"/>
		</linearGradient>
		<path class="st43" d="M203.05,278.49l20.12,7.69l10.74-19.95c-2.05-0.98-12.38-2.93-29.9,7.05c0,0-0.47-3.56-0.74-4.32
			c-0.27-0.76,2.46-6.02,2.09-8.18c-0.37-2.16-2.76-14.46-11.67-19.26c-8.91-4.8-21.89-7.22-28.8,3.65l-1.79,1.62
			c0,0-5.53,1.8-6.67,3.57l-1.19,13.68c0,0-1.64,3.71-1.7,4.84c-0.06,1.13,4.34,12.8,4.34,12.8s2.49,1.09,1.99,2.11
			c-0.49,1.02-1.95-0.5-4.65-0.73c-2.7-0.23-13.7,2.24-16.46,3.14c0,0-1.02-1.41-5.4-4.13c-4.37-2.72-9.46-3.56-11.78-5.3
			c-2.32-1.74-3.38-7.51-9.8-13.96c-6.42-6.45-21.19-22.6-23.18-25.63c-1.99-3.03,1.33-7.94,0.03-8.26
			c-1.3-0.32-5.02-4.71-4.15-6.32c0.87-1.61,14.93,2.89,20.29,0.82c5.36-2.07,8.02-16.99-0.12-26.63
			c-8.14-9.64-20.49-19.9-38.59-13.97c0,0-5.38,5.74-1.14,17.14c4.23,11.4,13.09,17.33,16.33,19.99c0,0-0.07,2.96-1.85,2.74
			c-1.79-0.22-4.26-3.15-4.64-4.39c-0.37-1.24-2.36-6.1-3.28-5.19c-0.92,0.91-1.15,2.69-1.15,2.69s-5.28-6.39-6.84-8.39
			c-1.56-2-3.19-3.11-4.19-2.21c-1,0.89-3.96-2.84-4.02-0.8c-0.06,2.05,7.27,9.42,9.27,11.54c1.99,2.11,7.7,11.36,8.77,14.39
			c1.07,3.02,4.56,11.02,6.98,14.16c2.42,3.14,16.99,29.1,21.42,33.44c4.42,4.34,12.55,15.81,15.9,18.04
			c3.35,2.23,7.38,8.07,9.6,10.24c2.21,2.17,0.51,7.93,7.8,11.85c7.29,3.92,7.29,3.92,7.29,3.92s6.59,3.97,9.56,5.88
			c1.2,0.77,4.48,4.53,8.26,8.99l8.97-11.8l-11.82-33.9l30.22,2.13L203.05,278.49z"/>
		
			<linearGradient id="SVGID_39_" gradientUnits="userSpaceOnUse" x1="413.7126" y1="133.2543" x2="470.6741" y2="178.8943" gradientTransform="matrix(0.969 0.2471 -0.2471 0.969 -161.2959 25.3271)">
			<stop  offset="0" style="stop-color:#E52527;stop-opacity:0"/>
			<stop  offset="1" style="stop-color:#E52527"/>
		</linearGradient>
		<polygon class="st44" points="233.91,266.23 219.29,271.21 219.53,281.48 211.31,277.81 203.05,278.49 223.17,286.18 		"/>
		
			<linearGradient id="SVGID_40_" gradientUnits="userSpaceOnUse" x1="335.9332" y1="168.4029" x2="472.4037" y2="277.7488" gradientTransform="matrix(0.969 0.2471 -0.2471 0.969 -161.2959 25.3271)">
			<stop  offset="0" style="stop-color:#E52527;stop-opacity:0"/>
			<stop  offset="1" style="stop-color:#E52527"/>
		</linearGradient>
		<polygon class="st45" points="157.27,291.15 145.58,304.75 144.33,318.44 134.01,317.47 151.72,328.39 174.97,332.55 
			170.74,304.59 		"/>
		
			<linearGradient id="SVGID_41_" gradientUnits="userSpaceOnUse" x1="400.7107" y1="168.4738" x2="391.5658" y2="155.7264" gradientTransform="matrix(0.969 0.2471 -0.2471 0.969 -161.2959 25.3271)">
			<stop  offset="0" style="stop-color:#E52527;stop-opacity:0"/>
			<stop  offset="1" style="stop-color:#E52527"/>
		</linearGradient>
		<polygon class="st46" points="157.87,281.69 180.55,285.07 194.14,277.84 203.27,268.96 204.01,273.28 203.05,278.49 
			187.49,293.28 		"/>
		
			<linearGradient id="SVGID_42_" gradientUnits="userSpaceOnUse" x1="300.8207" y1="192.683" x2="331.5811" y2="161.5069" gradientTransform="matrix(0.969 0.2471 -0.2471 0.969 -161.2959 25.3271)">
			<stop  offset="0" style="stop-color:#E52527;stop-opacity:0"/>
			<stop  offset="1" style="stop-color:#E52527"/>
		</linearGradient>
		<polygon class="st47" points="83.28,249.57 104.29,257.89 107.34,272.84 120.58,286.51 121.13,299.52 112.66,291.44 
			101.71,277.92 		"/>
		
			<linearGradient id="SVGID_43_" gradientUnits="userSpaceOnUse" x1="269.3896" y1="198.6128" x2="341.3899" y2="125.6395" gradientTransform="matrix(0.969 0.2471 -0.2471 0.969 -161.2959 25.3271)">
			<stop  offset="0" style="stop-color:#E52527;stop-opacity:0"/>
			<stop  offset="1" style="stop-color:#E52527"/>
		</linearGradient>
		<polygon class="st48" points="104.29,257.89 128.13,261.94 88.6,237.2 88.09,247.37 79.34,243.09 88.63,257.8 		"/>
		
			<linearGradient id="SVGID_44_" gradientUnits="userSpaceOnUse" x1="336.3065" y1="176.493" x2="362.9255" y2="149.5143" gradientTransform="matrix(0.969 0.2471 -0.2471 0.969 -161.2959 25.3271)">
			<stop  offset="0" style="stop-color:#E52527;stop-opacity:0"/>
			<stop  offset="1" style="stop-color:#E52527"/>
		</linearGradient>
		<polygon class="st49" points="131.77,264.52 145.3,273.22 146.95,266.74 		"/>
		
			<linearGradient id="SVGID_45_" gradientUnits="userSpaceOnUse" x1="239.2246" y1="141.3682" x2="291.6795" y2="88.2045" gradientTransform="matrix(0.969 0.2471 -0.2471 0.969 -161.2959 25.3271)">
			<stop  offset="0" style="stop-color:#E52527;stop-opacity:0"/>
			<stop  offset="1" style="stop-color:#E52527"/>
		</linearGradient>
		<polygon class="st50" points="66.07,182.84 96.23,212.09 64.01,203.88 57.89,180.75 		"/>
		
			<linearGradient id="SVGID_46_" gradientUnits="userSpaceOnUse" x1="241.7053" y1="107.296" x2="274.4417" y2="74.1173" gradientTransform="matrix(0.969 0.2471 -0.2471 0.969 -161.2959 25.3271)">
			<stop  offset="0" style="stop-color:#E52527;stop-opacity:0"/>
			<stop  offset="1" style="stop-color:#E52527"/>
		</linearGradient>
		<polygon class="st51" points="52.77,152.05 70.5,176.73 75.75,174.64 83.98,182.74 85.52,198.58 70.03,187.83 		"/>
		
			<linearGradient id="SVGID_47_" gradientUnits="userSpaceOnUse" x1="321.124" y1="123.9554" x2="276.6468" y2="97.768" gradientTransform="matrix(0.969 0.2471 -0.2471 0.969 -161.2959 25.3271)">
			<stop  offset="0" style="stop-color:#E52527;stop-opacity:0"/>
			<stop  offset="1" style="stop-color:#E52527"/>
		</linearGradient>
		<polygon class="st52" points="93.17,189.75 116.4,197.82 111.49,228.74 97.67,227.51 96.99,204.88 		"/>
		
			<linearGradient id="SVGID_48_" gradientUnits="userSpaceOnUse" x1="323.2288" y1="151.3885" x2="273.6368" y2="122.1895" gradientTransform="matrix(0.969 0.2471 -0.2471 0.969 -161.2959 25.3271)">
			<stop  offset="0" style="stop-color:#E52527;stop-opacity:0"/>
			<stop  offset="1" style="stop-color:#E52527"/>
		</linearGradient>
		<polygon class="st53" points="93.79,214.93 95.23,232.86 106.48,241.76 104.29,257.89 81.32,235.34 87.62,210.61 		"/>
		
			<linearGradient id="SVGID_49_" gradientUnits="userSpaceOnUse" x1="254.0116" y1="115.1628" x2="222.0993" y2="96.3733" gradientTransform="matrix(0.969 0.2471 -0.2471 0.969 -161.2959 25.3271)">
			<stop  offset="0" style="stop-color:#E52527;stop-opacity:0"/>
			<stop  offset="1" style="stop-color:#E52527"/>
		</linearGradient>
		<polygon class="st54" points="50.75,189.71 31.99,180.27 48.94,196.78 57.4,195.9 		"/>
		
			<linearGradient id="SVGID_50_" gradientUnits="userSpaceOnUse" x1="63.2179" y1="-1737.0836" x2="31.3053" y2="-1755.8733" gradientTransform="matrix(-0.8599 0.5105 -0.5105 -0.8599 -740.4652 -1321.5114)">
			<stop  offset="0" style="stop-color:#E52527;stop-opacity:0"/>
			<stop  offset="1" style="stop-color:#E52527"/>
		</linearGradient>
		<polygon class="st55" points="102.99,207.55 122.93,200.96 99.27,201.27 93.92,207.88 		"/>
	</g>
	
		<linearGradient id="SVGID_51_" gradientUnits="userSpaceOnUse" x1="165.7312" y1="167.4852" x2="154.5634" y2="187.4011" gradientTransform="matrix(0.996 0.0898 -0.0898 0.996 -57.3145 13.5816)">
		<stop  offset="0" style="stop-color:#231F20;stop-opacity:0"/>
		<stop  offset="1" style="stop-color:#231F20"/>
	</linearGradient>
	<path class="st56" d="M109.53,207.91L68.4,183.55c0,0,30.31,16.68,38.45,38.29C106.85,221.84,111.63,214.65,109.53,207.91z"/>
</g>
<linearGradient id="SVGID_52_" gradientUnits="userSpaceOnUse" x1="431.2928" y1="-1741.9244" x2="367.4018" y2="-1710.3993" gradientTransform="matrix(-1 0 0 -1 861.0137 -1228.5811)">
	<stop  offset="0" style="stop-color:#E52527;stop-opacity:0"/>
	<stop  offset="1" style="stop-color:#E52527"/>
</linearGradient>
<polygon class="st57" points="466.26,524.81 457.41,548.78 438.65,531.24 425.25,469.32 443.38,457.5 "/>
<linearGradient id="SVGID_53_" gradientUnits="userSpaceOnUse" x1="488.7998" y1="-1682.8739" x2="431.8045" y2="-1658.1317" gradientTransform="matrix(-1 0 0 -1 861.0137 -1228.5811)">
	<stop  offset="0" style="stop-color:#E52527;stop-opacity:0"/>
	<stop  offset="1" style="stop-color:#E52527"/>
</linearGradient>
<polygon class="st58" points="448.77,417.28 468.93,423.54 371.95,511.39 390.74,427.7 355.98,404.35 393.15,412.25 "/>
<linearGradient id="SVGID_54_" gradientUnits="userSpaceOnUse" x1="440.3437" y1="-1768.0145" x2="379.0084" y2="-1658.6331" gradientTransform="matrix(-1 0 0 -1 861.0137 -1228.5811)">
	<stop  offset="0" style="stop-color:#E52527;stop-opacity:0"/>
	<stop  offset="1" style="stop-color:#E52527"/>
</linearGradient>
<polygon class="st59" points="446.16,518.92 413.35,529.61 447.39,466.83 "/>
<linearGradient id="SVGID_55_" gradientUnits="userSpaceOnUse" x1="430.5386" y1="-1705.3397" x2="406.0683" y2="-1661.7009" gradientTransform="matrix(-1 0 0 -1 861.0137 -1228.5811)">
	<stop  offset="0" style="stop-color:#E52527;stop-opacity:0"/>
	<stop  offset="1" style="stop-color:#E52527"/>
</linearGradient>
<polygon class="st60" points="442.68,484.23 423.11,480.27 417.92,466.53 443.24,458.9 447.44,479.14 "/>
<linearGradient id="SVGID_56_" gradientUnits="userSpaceOnUse" x1="441.3875" y1="-1713.4103" x2="458.2929" y2="-1657.6755" gradientTransform="matrix(-1 0 0 -1 861.0137 -1228.5811)">
	<stop  offset="0" style="stop-color:#E52527;stop-opacity:0"/>
	<stop  offset="1" style="stop-color:#E52527"/>
</linearGradient>
<polygon class="st61" points="433.26,470.34 401.57,484.75 398.23,469.94 418.12,455.99 "/>
<linearGradient id="SVGID_57_" gradientUnits="userSpaceOnUse" x1="408.7807" y1="-1714.0177" x2="410.6357" y2="-1687.8159" gradientTransform="matrix(-1 0 0 -1 861.0137 -1228.5811)">
	<stop  offset="0" style="stop-color:#E52527;stop-opacity:0"/>
	<stop  offset="1" style="stop-color:#E52527"/>
</linearGradient>
<polygon class="st62" points="503.44,493.92 452.15,480.38 440.57,493.92 401.57,484.75 485.4,430.12 "/>
<linearGradient id="SVGID_58_" gradientUnits="userSpaceOnUse" x1="-557.1944" y1="-1552.629" x2="-619.1782" y2="-1522.0449" gradientTransform="matrix(-0.4792 -0.8777 0.8777 -0.4792 1482.6178 -867.3064)">
	<stop  offset="0" style="stop-color:#E52527;stop-opacity:0"/>
	<stop  offset="1" style="stop-color:#E52527"/>
</linearGradient>
<polygon class="st63" points="395.68,401.39 370.41,405.11 376.81,380.24 420.4,344.7 440.18,352.3 "/>
<linearGradient id="SVGID_59_" gradientUnits="userSpaceOnUse" x1="-534.8409" y1="-1541.0229" x2="-587.4496" y2="-1518.1851" gradientTransform="matrix(-0.4792 -0.8777 0.8777 -0.4792 1482.6178 -867.3064)">
	<stop  offset="0" style="stop-color:#E52527;stop-opacity:0"/>
	<stop  offset="1" style="stop-color:#E52527"/>
</linearGradient>
<polygon class="st64" points="435.65,402.92 439.81,423.63 343.93,360.56 398.69,356.99 402.53,315.29 437.43,327.34 "/>
<linearGradient id="SVGID_60_" gradientUnits="userSpaceOnUse" x1="-527.4577" y1="-1549.8188" x2="-605.6636" y2="-1410.3517" gradientTransform="matrix(-0.4792 -0.8777 0.8777 -0.4792 1482.6178 -867.3064)">
	<stop  offset="0" style="stop-color:#E52527;stop-opacity:0"/>
	<stop  offset="1" style="stop-color:#E52527"/>
</linearGradient>
<polygon class="st65" points="407.09,386.76 382,290.31 472.46,343.76 "/>
<linearGradient id="SVGID_61_" gradientUnits="userSpaceOnUse" x1="-634.8191" y1="-1582.9569" x2="-686.1016" y2="-1491.5031" gradientTransform="matrix(-0.4792 -0.8777 0.8777 -0.4792 1482.6178 -867.3064)">
	<stop  offset="0" style="stop-color:#E52527;stop-opacity:0"/>
	<stop  offset="1" style="stop-color:#E52527"/>
</linearGradient>
<polygon class="st66" points="383.32,463.06 417,408.86 393.11,382.38 443.38,431.96 436.17,514.86 "/>
<linearGradient id="SVGID_62_" gradientUnits="userSpaceOnUse" x1="-555.6033" y1="-1525.4385" x2="-553.7482" y2="-1499.2363" gradientTransform="matrix(-0.4792 -0.8777 0.8777 -0.4792 1482.6178 -867.3064)">
	<stop  offset="0" style="stop-color:#E52527;stop-opacity:0"/>
	<stop  offset="1" style="stop-color:#E52527"/>
</linearGradient>
<polygon class="st67" points="427.08,400.35 414.38,348.84 396.95,345.16 386.31,306.54 474.43,353.94 "/>
<linearGradient id="SVGID_63_" gradientUnits="userSpaceOnUse" x1="-550.0987" y1="-1649.616" x2="-602.707" y2="-1626.7782" gradientTransform="matrix(1 0 0 -1 1063.5156 -1228.5811)">
	<stop  offset="0" style="stop-color:#E52527;stop-opacity:0"/>
	<stop  offset="1" style="stop-color:#E52527"/>
</linearGradient>
<polygon class="st68" points="437.45,402.17 417.29,408.44 518.59,462.37 495.48,412.6 530.24,389.25 493.07,397.15 "/>
<linearGradient id="SVGID_64_" gradientUnits="userSpaceOnUse" x1="-1068.4899" y1="-702.3341" x2="-1130.4781" y2="-671.7478" gradientTransform="matrix(0.4792 -0.8777 -0.8777 -0.4792 441.912 -867.3064)">
	<stop  offset="0" style="stop-color:#E52527;stop-opacity:0"/>
	<stop  offset="1" style="stop-color:#E52527"/>
</linearGradient>
<polygon class="st69" points="537.53,442.69 562.8,446.41 556.4,421.54 512.82,386.01 493.04,393.6 "/>
<linearGradient id="SVGID_65_" gradientUnits="userSpaceOnUse" x1="-996.2499" y1="-641.4297" x2="-1048.8575" y2="-618.5922" gradientTransform="matrix(0.4792 -0.8777 -0.8777 -0.4792 441.912 -867.3064)">
	<stop  offset="0" style="stop-color:#E52527;stop-opacity:0"/>
	<stop  offset="1" style="stop-color:#E52527"/>
</linearGradient>
<polygon class="st70" points="474.53,372.11 470.37,392.81 566.25,329.74 511.49,326.17 507.65,284.48 496.78,320.89 "/>
<linearGradient id="SVGID_66_" gradientUnits="userSpaceOnUse" x1="-1044.1162" y1="-744.7228" x2="-1105.4514" y2="-635.3416" gradientTransform="matrix(0.4792 -0.8777 -0.8777 -0.4792 441.912 -867.3064)">
	<stop  offset="0" style="stop-color:#E52527;stop-opacity:0"/>
	<stop  offset="1" style="stop-color:#E52527"/>
</linearGradient>
<polygon class="st71" points="565,418.53 590.1,394.86 518.68,394.64 "/>
<linearGradient id="SVGID_67_" gradientUnits="userSpaceOnUse" x1="-1053.9197" y1="-682.0476" x2="-1078.389" y2="-638.4105" gradientTransform="matrix(0.4792 -0.8777 -0.8777 -0.4792 441.912 -867.3064)">
	<stop  offset="0" style="stop-color:#E52527;stop-opacity:0"/>
	<stop  offset="1" style="stop-color:#E52527"/>
</linearGradient>
<polygon class="st72" points="536.21,398.85 542.12,379.77 532.54,368.63 513.71,387.2 529.46,400.58 "/>
<linearGradient id="SVGID_68_" gradientUnits="userSpaceOnUse" x1="-1057.4929" y1="-697.6488" x2="-1021.5419" y2="-579.1229" gradientTransform="matrix(0.4792 -0.8777 -0.8777 -0.4792 441.912 -867.3064)">
	<stop  offset="0" style="stop-color:#E52527;stop-opacity:0"/>
	<stop  offset="1" style="stop-color:#E52527"/>
</linearGradient>
<polygon class="st73" points="503.02,408.85 554.71,372.22 549.76,338.54 504.73,353.6 "/>
<linearGradient id="SVGID_69_" gradientUnits="userSpaceOnUse" x1="-1040.4432" y1="-686.2058" x2="-1038.5883" y2="-660.0045" gradientTransform="matrix(0.4792 -0.8777 -0.8777 -0.4792 441.912 -867.3064)">
	<stop  offset="0" style="stop-color:#E52527;stop-opacity:0"/>
	<stop  offset="1" style="stop-color:#E52527"/>
</linearGradient>
<polygon class="st74" points="528.52,423.73 541.22,372.22 558.65,368.55 569.29,329.93 481.17,377.33 "/>
<linearGradient id="SVGID_70_" gradientUnits="userSpaceOnUse" x1="360.6701" y1="-1661.9609" x2="336.6095" y2="-1651.3579" gradientTransform="matrix(-1 0 0 -1 861.0137 -1228.5811)">
	<stop  offset="0" style="stop-color:#E52527;stop-opacity:0"/>
	<stop  offset="1" style="stop-color:#E52527"/>
</linearGradient>
<polygon class="st75" points="526.35,432.45 508.47,434.94 503.7,424.07 503.74,421.35 524.31,430.12 "/>
<linearGradient id="SVGID_71_" gradientUnits="userSpaceOnUse" x1="354.6262" y1="-1667.8436" x2="331.7878" y2="-1677.8354" gradientTransform="matrix(-1 0 0 -1 861.0137 -1228.5811)">
	<stop  offset="0" style="stop-color:#E52527;stop-opacity:0"/>
	<stop  offset="1" style="stop-color:#E52527"/>
</linearGradient>
<polygon class="st76" points="526.35,432.45 512.55,457.5 515.02,434.02 "/>
<path class="st11" d="M542.24,445.98c2.45-5.71,1.63-7.34,0-15.5c-1.63-8.16-9.47-34.26-9.47-34.26v-2.45l-0.31-3.26
	c-1.63-2.45,1.22-16.31,0-24.88c-1.22-8.56-9.38-17.94-13.05-19.98c-3.67-2.04-28.14,0-30.18,0c-2.04,0-4.89-2.45-4.89-2.45
	l0.14-6.8c3.81-4.35,4.89-20.12-1.63-35.34c-6.53-15.23-23.93-17.4-35.89-10.87c-11.96,6.53-13.59,16.85-14.68,31.54
	c-1.09,14.68,7.61,32.08,7.61,32.08c-3.81,0-11.42,3.8-11.42,3.8l-7.07,8.16c-6.53,9.79-1.09,31.54-1.09,31.54l5.98,5.98v6.53
	c0,10.33-3.26,25.01-5.98,34.8c-2.72,9.79-1.09,37.52-1.09,37.52l-2.17,3.26l-2.72,8.7c0,0,3.81,14.14,4.35,20.66
	c0.54,6.53,7.61,15.23,7.84,14.68c0.23-0.54,4.12-3.81,2.49-7.07c-1.63-3.26-2.49-9.24-2.49-9.24s2.49-4.35,0.86-8.7
	c-1.63-4.35-0.54-15.22,0-19.03c0.54-3.81,9.24-22.84,9.24-22.84l1.09,4.65l-1.09,10.58l-0.54,11.96v11.96l-3.81,11.96
	c0,17.4,10.3,34.26,10.3,34.26s-2.14,13.05,0.58,19.03c2.72,5.98-2.18,8.16,0,9.24c2.17,1.09,0,5.44,3.26,8.16
	c3.26,2.72,18.49-0.54,21.21-2.72c2.72-2.18,4.35-15.23,3.81-22.84c-0.54-7.61,4.35-31.54,4.35-31.54s2.72,9.25,5.44,16.86
	c2.72,7.61,9.24,35.34,10.33,37.52c1.09,2.18,4.89,9.24,4.89,9.24c16.86,2.72,20.12-12.51,20.12-12.51s-4.89-21.21-2.49-42.41
	c0.87-7.63,1.11-16.75,1.06-25.28l1.43-0.82c0,0,0,18.49,2.72,18.49s13.59-9.79,13.59-9.79c2.04-2.45,0.82-19.58,0.82-21.21
	c0-1.63-0.82-14.27-0.82-14.27c0.08-0.11,0.16-0.26,0.25-0.46C535.28,478.02,539.89,451.47,542.24,445.98z M523.07,467.46
	c0,9.24-2.18,13.05-2.18,13.05l-3.81,1.09c0,3.57-1.61,8-2.48,10.14c-0.27-5.81-0.55-9.59-0.55-9.59l-5.67-10.33l0.54-9.24
	c0,0,1.09-10.33,1.63-16.31c0.54-5.98,5.98-23.38,5.98-23.38c3.81,2.18,8.16,12.92,8.16,12.92
	C522.53,439.46,523.07,458.22,523.07,467.46z"/>
<g>
	<g>
		<linearGradient id="SVGID_72_" gradientUnits="userSpaceOnUse" x1="510.6909" y1="405.1854" x2="506.8099" y2="376.3646">
			<stop  offset="0" style="stop-color:#E52527;stop-opacity:0"/>
			<stop  offset="1" style="stop-color:#E52527"/>
		</linearGradient>
		<path class="st77" d="M502.24,410.67c0,0-4.45-9.37-1.22-16.59c0,0,12.04-6.41,17.63-6.6L502.24,410.67z"/>
		<linearGradient id="SVGID_73_" gradientUnits="userSpaceOnUse" x1="472.9478" y1="291.3406" x2="449.5975" y2="311.0586">
			<stop  offset="0" style="stop-color:#E52527;stop-opacity:0"/>
			<stop  offset="1" style="stop-color:#E52527"/>
		</linearGradient>
		<path class="st78" d="M448.09,290.6l17.33,18.2l16.32-3.15C481.74,305.65,474.49,289.75,448.09,290.6z"/>
		<linearGradient id="SVGID_74_" gradientUnits="userSpaceOnUse" x1="478.2939" y1="305.2922" x2="452.5996" y2="322.0139">
			<stop  offset="0" style="stop-color:#E52527;stop-opacity:0"/>
			<stop  offset="1" style="stop-color:#E52527"/>
		</linearGradient>
		<polygon class="st79" points="466.92,291.64 465.42,308.8 474.88,324.96 490.74,318.25 481.08,290.57 		"/>
		<linearGradient id="SVGID_75_" gradientUnits="userSpaceOnUse" x1="507.4444" y1="352.1406" x2="446.2625" y2="391.9573">
			<stop  offset="0" style="stop-color:#E52527;stop-opacity:0"/>
			<stop  offset="1" style="stop-color:#E52527"/>
		</linearGradient>
		<path class="st80" d="M473.54,321.12l-10.46,12.87l15.07,32.47l24.08,26.84c0,0,12.76-6.74,16.41-5.81l13.35,1.75l7.34-22.79
			c0,0-14.94-33.57-15.63-34.55c-0.69-0.98-29.65-17.02-29.65-17.02L473.54,321.12z"/>
		<linearGradient id="SVGID_76_" gradientUnits="userSpaceOnUse" x1="459.4022" y1="292.9422" x2="462.6612" y2="315.8601">
			<stop  offset="0" style="stop-color:#E52527;stop-opacity:0"/>
			<stop  offset="1" style="stop-color:#E52527"/>
		</linearGradient>
		<path class="st81" d="M452.29,291.67l13.8,9.41l0.53-6.06C466.63,295.03,457.58,288.99,452.29,291.67z"/>
		<linearGradient id="SVGID_77_" gradientUnits="userSpaceOnUse" x1="477.3633" y1="308.8141" x2="480.766" y2="332.7424">
			<stop  offset="0" style="stop-color:#E52527;stop-opacity:0"/>
			<stop  offset="1" style="stop-color:#E52527"/>
		</linearGradient>
		<path class="st82" d="M476.94,306.15l-3.06,5.8l8.51,5.64C482.39,317.6,482.36,308.03,476.94,306.15z"/>
		<linearGradient id="SVGID_78_" gradientUnits="userSpaceOnUse" x1="459.1619" y1="297.6265" x2="453.5913" y2="335.1351">
			<stop  offset="0" style="stop-color:#E52527;stop-opacity:0"/>
			<stop  offset="1" style="stop-color:#E52527"/>
		</linearGradient>
		<polygon class="st83" points="458.08,301.09 440.62,304.82 466.63,329.63 473.05,321.73 465.42,308.8 		"/>
		<linearGradient id="SVGID_79_" gradientUnits="userSpaceOnUse" x1="473.9618" y1="330.9105" x2="466.7503" y2="379.4685">
			<stop  offset="0" style="stop-color:#E52527;stop-opacity:0"/>
			<stop  offset="1" style="stop-color:#E52527"/>
		</linearGradient>
		<polygon class="st84" points="463.08,333.99 483.01,340.19 460,368.83 		"/>
		<linearGradient id="SVGID_80_" gradientUnits="userSpaceOnUse" x1="432.6711" y1="363.5229" x2="522.1179" y2="391.2542">
			<stop  offset="0" style="stop-color:#E52527;stop-opacity:0"/>
			<stop  offset="1" style="stop-color:#E52527"/>
		</linearGradient>
		<polygon class="st85" points="471.1,351.27 445.55,391.68 476.94,391.68 478.16,366.45 		"/>
		<linearGradient id="SVGID_81_" gradientUnits="userSpaceOnUse" x1="499.2653" y1="373.3173" x2="461.4743" y2="400.6409">
			<stop  offset="0" style="stop-color:#E52527;stop-opacity:0"/>
			<stop  offset="1" style="stop-color:#E52527"/>
		</linearGradient>
		<polygon class="st86" points="477.21,386.11 502.24,393.29 478.16,366.45 		"/>
	</g>
	<linearGradient id="SVGID_82_" gradientUnits="userSpaceOnUse" x1="499.1905" y1="373.7421" x2="473.3727" y2="390.5441">
		<stop  offset="0" style="stop-color:#E52527;stop-opacity:0"/>
		<stop  offset="1" style="stop-color:#E52527"/>
	</linearGradient>
	<polygon class="st87" points="478.16,366.45 493.46,355.93 500.03,355.93 502.24,393.29 	"/>
	<linearGradient id="SVGID_83_" gradientUnits="userSpaceOnUse" x1="497.6971" y1="370.4092" x2="506.1254" y2="429.6788">
		<stop  offset="0" style="stop-color:#E52527;stop-opacity:0"/>
		<stop  offset="1" style="stop-color:#E52527"/>
	</linearGradient>
	<polygon class="st88" points="478.16,366.45 500.03,371.7 516.19,366.98 502.24,393.29 	"/>
	<linearGradient id="SVGID_84_" gradientUnits="userSpaceOnUse" x1="502.3157" y1="354.4427" x2="509.4846" y2="404.8559">
		<stop  offset="0" style="stop-color:#E52527;stop-opacity:0"/>
		<stop  offset="1" style="stop-color:#E52527"/>
	</linearGradient>
	<path class="st89" d="M495.41,350.28l-5.06,25.77l10.87-1.44l16.55-17.36C517.76,357.25,513.18,344.22,495.41,350.28z"/>
</g>
<linearGradient id="SVGID_85_" gradientUnits="userSpaceOnUse" x1="479.0523" y1="499.679" x2="479.0523" y2="237.7724">
	<stop  offset="0" style="stop-color:#E52527;stop-opacity:0"/>
	<stop  offset="1" style="stop-color:#E52527"/>
</linearGradient>
<path class="st90" d="M542.24,445.98c2.45-5.71,1.63-7.34,0-15.5c-1.63-8.16-9.47-34.26-9.47-34.26v-2.45l-0.31-3.26
	c-1.63-2.45,1.22-16.31,0-24.88c-1.22-8.56-9.38-17.94-13.05-19.98c-3.67-2.04-28.14,0-30.18,0c-2.04,0-4.89-2.45-4.89-2.45
	l0.14-6.8c3.81-4.35,4.89-20.12-1.63-35.34c-6.53-15.23-23.93-17.4-35.89-10.87c-11.96,6.53-13.59,16.85-14.68,31.54
	c-1.09,14.68,7.61,32.08,7.61,32.08c-3.81,0-11.42,3.8-11.42,3.8l-7.07,8.16c-6.53,9.79-1.09,31.54-1.09,31.54l5.98,5.98v6.53
	c0,10.33-3.26,25.01-5.98,34.8c-2.72,9.79-1.09,37.52-1.09,37.52l-2.17,3.26l-2.72,8.7c0,0,3.81,14.14,4.35,20.66
	c0.54,6.53,7.61,15.23,7.84,14.68c0.23-0.54,4.12-3.81,2.49-7.07c-1.63-3.26-2.49-9.24-2.49-9.24s2.49-4.35,0.86-8.7
	c-1.63-4.35-0.54-15.22,0-19.03c0.54-3.81,9.24-22.84,9.24-22.84l1.09,4.65l-1.09,10.58l-0.54,11.96v11.96l-3.81,11.96
	c0,17.4,10.3,34.26,10.3,34.26s-2.14,13.05,0.58,19.03c2.72,5.98-2.18,8.16,0,9.24c2.17,1.09,0,5.44,3.26,8.16
	c3.26,2.72,18.49-0.54,21.21-2.72c2.72-2.18,4.35-15.23,3.81-22.84c-0.54-7.61,4.35-31.54,4.35-31.54s2.72,9.25,5.44,16.86
	c2.72,7.61,9.24,35.34,10.33,37.52c1.09,2.18,4.89,9.24,4.89,9.24c16.86,2.72,20.12-12.51,20.12-12.51s-4.89-21.21-2.49-42.41
	c0.87-7.63,1.11-16.75,1.06-25.28l1.43-0.82c0,0,0,18.49,2.72,18.49s13.59-9.79,13.59-9.79c2.04-2.45,0.82-19.58,0.82-21.21
	c0-1.63-0.82-14.27-0.82-14.27c0.08-0.11,0.16-0.26,0.25-0.46C535.28,478.02,539.89,451.47,542.24,445.98z M523.07,467.46
	c0,9.24-2.18,13.05-2.18,13.05l-3.81,1.09c0,3.57-1.61,8-2.48,10.14c-0.27-5.81-0.55-9.59-0.55-9.59l-5.67-10.33l0.54-9.24
	c0,0,1.09-10.33,1.63-16.31c0.54-5.98,5.98-23.38,5.98-23.38c3.81,2.18,8.16,12.92,8.16,12.92
	C522.53,439.46,523.07,458.22,523.07,467.46z"/>
<path class="st13" d="M436,329.35c0,0,23.72,6.8,43.05-4.08c0,0,0.18,6.12-2.27,7.54s-7.69,7.32-24.67,7.54
	C452.11,340.36,438.04,339.34,436,329.35z"/>
<path class="st13" d="M457.53,342.8v3.47c0,0,9.06,0.61,14.36-3.47v-2.45C471.89,340.36,462.95,344.23,457.53,342.8z"/>
<path class="st13" d="M454.98,342.8v3.47c0,0-9.06,0.61-14.36-3.47v-2.45C440.62,340.36,449.57,344.23,454.98,342.8z"/>
<path class="st13" d="M471.89,345.46c0,0,0,8.97-2.85,12.03c-2.85,3.06-11.51,3.67-11.51,3.67v-12.64
	C457.53,348.51,468.02,348.11,471.89,345.46z"/>
<path class="st13" d="M473.93,344.23l7.34-5.91c0,0-0.2,9.58-3.67,12.64c-3.47,3.06-5.71,4.28-5.71,4.28
	S474.31,352.39,473.93,344.23z"/>
<path class="st13" d="M454.97,348.31c0,0-9.79,0.2-11.83-1.53c0,0-2.24,12.34,9.99,14.38h1.84V348.31z"/>
<linearGradient id="SVGID_86_" gradientUnits="userSpaceOnUse" x1="444.2225" y1="342.8136" x2="492.1713" y2="324.9017">
	<stop  offset="0" style="stop-color:#E52527;stop-opacity:0"/>
	<stop  offset="1" style="stop-color:#E52527"/>
</linearGradient>
<path class="st91" d="M464.71,330.39v9.15c0,0,16.27-2.85,14.34-14.27C479.05,325.27,470.67,329.28,464.71,330.39z"/>
<linearGradient id="SVGID_87_" gradientUnits="userSpaceOnUse" x1="482.592" y1="364.0116" x2="454.5082" y2="553.1094">
	<stop  offset="0" style="stop-color:#E52527;stop-opacity:0"/>
	<stop  offset="1" style="stop-color:#E52527"/>
</linearGradient>
<path class="st92" d="M457.61,378.57l-36.99,19.16l28.15,23.24l-2.88,20.27c0,0,35.13,28.31,38.02,32.25
	c2.89,3.94,31.78,51.17,31.78,51.17l-3-20.81l-2.38-16.11l-0.77-2.85L500,449.72l-49.88-37.14L457.61,378.57z"/>
<g>
	<path class="st13" d="M463.55,399.9v11.96c0,2.72-0.13,4.7-0.39,5.94c-0.26,1.24-0.81,2.4-1.63,3.48
		c-0.83,1.08-1.82,1.85-2.99,2.33c-1.17,0.47-2.47,0.71-3.92,0.71c-1.9,0-3.48-0.25-4.74-0.74c-1.26-0.49-2.26-1.26-3.01-2.31
		c-0.75-1.05-1.28-2.15-1.59-3.31c-0.32-1.16-0.47-3-0.47-5.53V399.9c0-3.29,0.25-5.76,0.76-7.4c0.51-1.64,1.51-2.95,3.01-3.94
		c1.5-0.99,3.32-1.48,5.46-1.48c1.74,0,3.3,0.34,4.68,1.03c1.38,0.68,2.41,1.52,3.09,2.51c0.68,0.99,1.14,2.11,1.39,3.35
		C463.43,395.2,463.55,397.18,463.55,399.9z M455.6,396.88c0-1.91-0.08-3.1-0.25-3.58c-0.16-0.48-0.55-0.72-1.15-0.72
		c-0.59,0-0.98,0.25-1.17,0.76c-0.19,0.51-0.29,1.69-0.29,3.53v17.5c0,2.08,0.09,3.34,0.27,3.77c0.18,0.43,0.56,0.64,1.15,0.64
		c0.59,0,0.98-0.25,1.16-0.76c0.18-0.5,0.28-1.63,0.28-3.39V396.88z"/>
	<path class="st13" d="M482.95,403.29c1.21,0.46,2.11,1.21,2.7,2.25c0.59,1.05,0.89,3.49,0.89,7.33c0,2.85-0.29,5.07-0.87,6.64
		c-0.58,1.57-1.58,2.77-2.99,3.59c-1.42,0.82-3.23,1.23-5.45,1.23c-2.52,0-4.5-0.47-5.93-1.43c-1.44-0.95-2.38-2.12-2.83-3.5
		c-0.45-1.38-0.68-3.78-0.68-7.19v-2.84h7.95v5.83c0,1.55,0.08,2.54,0.25,2.96c0.16,0.42,0.53,0.63,1.09,0.63
		c0.62,0,1.02-0.27,1.22-0.8c0.2-0.53,0.29-1.92,0.29-4.16v-2.48c0-1.37-0.14-2.38-0.41-3.01c-0.28-0.63-0.68-1.05-1.22-1.25
		c-0.54-0.2-1.58-0.31-3.13-0.34v-5.21c1.89,0,3.06-0.08,3.5-0.24c0.45-0.16,0.77-0.52,0.96-1.06c0.2-0.54,0.29-1.4,0.29-2.57v-1.99
		c0-1.26-0.11-2.08-0.34-2.48c-0.23-0.4-0.59-0.6-1.07-0.6c-0.55,0-0.93,0.21-1.13,0.63c-0.2,0.42-0.3,1.32-0.3,2.69v2.95h-7.95
		v-3.06c0-3.43,0.69-5.74,2.09-6.95c1.39-1.2,3.6-1.81,6.63-1.81c3.79,0,6.36,0.83,7.71,2.5c1.35,1.67,2.03,3.98,2.03,6.95
		c0,2.01-0.24,3.46-0.73,4.35C485.02,401.74,484.17,402.56,482.95,403.29z"/>
</g>
<linearGradient id="SVGID_88_" gradientUnits="userSpaceOnUse" x1="445.9322" y1="431.8642" x2="450.8323" y2="426.9641">
	<stop  offset="0" style="stop-color:#E52527;stop-opacity:0"/>
	<stop  offset="1" style="stop-color:#E52527"/>
</linearGradient>
<polygon class="st93" points="448.51,422.84 436,432.45 445.9,441.24 "/>
<linearGradient id="SVGID_89_" gradientUnits="userSpaceOnUse" x1="438.6252" y1="445.8388" x2="447.3558" y2="437.1082">
	<stop  offset="0" style="stop-color:#E52527;stop-opacity:0"/>
	<stop  offset="1" style="stop-color:#E52527"/>
</linearGradient>
<polygon class="st94" points="441.6,428.14 445.9,441.24 440.83,451.61 436.62,462.57 433.26,442.25 "/>
<linearGradient id="SVGID_90_" gradientUnits="userSpaceOnUse" x1="433.5273" y1="454.7903" x2="440.912" y2="447.4056">
	<stop  offset="0" style="stop-color:#E52527;stop-opacity:0"/>
	<stop  offset="1" style="stop-color:#E52527"/>
</linearGradient>
<polygon class="st95" points="435.2,438.97 441.85,449.51 432.68,469.79 427.23,454.38 "/>
<linearGradient id="SVGID_91_" gradientUnits="userSpaceOnUse" x1="430.1526" y1="462.5474" x2="435.3384" y2="457.3617">
	<stop  offset="0" style="stop-color:#E52527;stop-opacity:0"/>
	<stop  offset="1" style="stop-color:#E52527"/>
</linearGradient>
<polygon class="st96" points="429.63,449.74 438.02,458.9 431.25,474.78 425.25,465.83 "/>
<linearGradient id="SVGID_92_" gradientUnits="userSpaceOnUse" x1="331.4897" y1="292.7233" x2="246.9598" y2="334.4321">
	<stop  offset="0" style="stop-color:#E52527;stop-opacity:0"/>
	<stop  offset="1" style="stop-color:#E52527"/>
</linearGradient>
<polygon class="st97" points="283.15,277.54 294.86,245.84 319.67,269.04 337.4,350.97 313.42,366.6 "/>
<linearGradient id="SVGID_93_" gradientUnits="userSpaceOnUse" x1="407.5729" y1="370.8488" x2="332.1665" y2="403.5834">
	<stop  offset="0" style="stop-color:#E52527;stop-opacity:0"/>
	<stop  offset="1" style="stop-color:#E52527"/>
</linearGradient>
<polygon class="st98" points="306.29,419.82 279.61,411.53 407.92,295.3 383.06,406.03 429.05,436.92 379.87,426.47 "/>
<linearGradient id="SVGID_94_" gradientUnits="userSpaceOnUse" x1="343.4642" y1="258.2052" x2="262.3158" y2="402.9201">
	<stop  offset="0" style="stop-color:#E52527;stop-opacity:0"/>
	<stop  offset="1" style="stop-color:#E52527"/>
</linearGradient>
<polygon class="st99" points="309.74,285.34 353.15,271.2 308.11,354.27 "/>
<linearGradient id="SVGID_95_" gradientUnits="userSpaceOnUse" x1="330.4917" y1="341.126" x2="298.117" y2="398.861">
	<stop  offset="0" style="stop-color:#E52527;stop-opacity:0"/>
	<stop  offset="1" style="stop-color:#E52527"/>
</linearGradient>
<polygon class="st100" points="314.34,331.24 340.24,336.48 347.11,354.66 313.6,364.76 308.05,337.98 "/>
<linearGradient id="SVGID_96_" gradientUnits="userSpaceOnUse" x1="344.8452" y1="330.4483" x2="367.2115" y2="404.1869">
	<stop  offset="0" style="stop-color:#E52527;stop-opacity:0"/>
	<stop  offset="1" style="stop-color:#E52527"/>
</linearGradient>
<polygon class="st101" points="326.81,349.62 368.73,330.56 373.15,350.15 346.83,368.6 "/>
<linearGradient id="SVGID_97_" gradientUnits="userSpaceOnUse" x1="301.7055" y1="329.6446" x2="304.1597" y2="364.3103">
	<stop  offset="0" style="stop-color:#E52527;stop-opacity:0"/>
	<stop  offset="1" style="stop-color:#E52527"/>
</linearGradient>
<polygon class="st102" points="233.95,318.43 301.82,336.34 317.14,318.43 368.73,330.56 257.82,402.83 "/>
<linearGradient id="SVGID_98_" gradientUnits="userSpaceOnUse" x1="1229.282" y1="-479.3175" x2="1147.2762" y2="-438.8541" gradientTransform="matrix(0.4792 0.8777 -0.8777 0.4792 -621.6036 -361.2756)">
	<stop  offset="0" style="stop-color:#E52527;stop-opacity:0"/>
	<stop  offset="1" style="stop-color:#E52527"/>
</linearGradient>
<polygon class="st103" points="376.53,440.85 409.96,435.92 401.49,468.82 343.83,515.84 317.66,505.79 "/>
<linearGradient id="SVGID_99_" gradientUnits="userSpaceOnUse" x1="1258.8564" y1="-463.9624" x2="1189.2538" y2="-433.7472" gradientTransform="matrix(0.4792 0.8777 -0.8777 0.4792 -621.6036 -361.2756)">
	<stop  offset="0" style="stop-color:#E52527;stop-opacity:0"/>
	<stop  offset="1" style="stop-color:#E52527"/>
</linearGradient>
<polygon class="st104" points="323.65,438.81 318.14,411.42 444.99,494.86 372.54,499.58 367.47,554.75 321.28,538.81 "/>
<linearGradient id="SVGID_100_" gradientUnits="userSpaceOnUse" x1="1268.6232" y1="-475.6015" x2="1165.1548" y2="-291.0825" gradientTransform="matrix(0.4792 0.8777 -0.8777 0.4792 -621.6036 -361.2756)">
	<stop  offset="0" style="stop-color:#E52527;stop-opacity:0"/>
	<stop  offset="1" style="stop-color:#E52527"/>
</linearGradient>
<polygon class="st105" points="361.43,460.19 394.63,587.8 274.95,517.09 "/>
<linearGradient id="SVGID_101_" gradientUnits="userSpaceOnUse" x1="1126.5825" y1="-519.4423" x2="1058.7343" y2="-398.4462" gradientTransform="matrix(0.4792 0.8777 -0.8777 0.4792 -621.6036 -361.2756)">
	<stop  offset="0" style="stop-color:#E52527;stop-opacity:0"/>
	<stop  offset="1" style="stop-color:#E52527"/>
</linearGradient>
<polygon class="st106" points="392.88,359.25 348.32,430.95 379.93,465.99 313.42,400.4 322.96,290.72 "/>
<linearGradient id="SVGID_102_" gradientUnits="userSpaceOnUse" x1="1231.3875" y1="-443.3441" x2="1233.8416" y2="-408.6791" gradientTransform="matrix(0.4792 0.8777 -0.8777 0.4792 -621.6036 -361.2756)">
	<stop  offset="0" style="stop-color:#E52527;stop-opacity:0"/>
	<stop  offset="1" style="stop-color:#E52527"/>
</linearGradient>
<polygon class="st107" points="334.98,442.22 351.78,510.37 374.84,515.23 388.92,566.33 272.34,503.61 "/>
<linearGradient id="SVGID_104_" gradientUnits="userSpaceOnUse" x1="-423.2584" y1="414.8501" x2="-492.8606" y2="445.0651" gradientTransform="matrix(-1 0 0 1 -202.501 0)">
	<stop  offset="0" style="stop-color:#E52527;stop-opacity:0"/>
	<stop  offset="1" style="stop-color:#E52527"/>
</linearGradient>
<polygon class="st108" points="321.26,439.8 347.94,431.51 213.91,360.16 244.49,426.01 198.5,456.91 247.68,446.45 "/>
<linearGradient id="SVGID_105_" gradientUnits="userSpaceOnUse" x1="908.9238" y1="249.049" x2="839.3212" y2="279.2642" gradientTransform="matrix(-0.4792 0.8777 0.8777 0.4792 419.1021 -361.2756)">
	<stop  offset="0" style="stop-color:#E52527;stop-opacity:0"/>
	<stop  offset="1" style="stop-color:#E52527"/>
</linearGradient>
<polygon class="st109" points="272.2,479.58 277.71,452.19 150.85,535.63 223.3,540.35 228.38,595.52 242.77,547.35 "/>
<g>
	<path class="st11" d="M254.28,306.53c0,0,3.02-14.49,13.63-20.97c0,0,11.64-13.25,30.48-7.22c0,0,18.13,4.71,23.05,21.2
		c0,0,3.96,3.98,3.39,10.75c0,0,1.83,1.99,0.95,5.71l-0.95,2.7c0,0,1.68,9.02-2.07,15.84c0,0,3.02,9.18,0,13.16
		c-3.02,3.98-4.64-3.26-4.93-4.36l-0.88-1.39h-4.12c0,0-2.39,12.4-7.1,14.32l-7.33,0.41c0,0,1.53,0.01-1.71,0.6
		c-3.24,0.59-22.64-2.66-32.63,0.07c-2.7,0.74-7.55-12.45-8.67-16.35c0,0-3.77-3.14-3.44-5.83c0,0,1.79-3.8,1.35-5.4
		c-0.44-1.6-2.76-8.35-1.88-12.22c0.88-3.88,0.59-10.07,1.18-10.36C253.19,306.92,254.28,306.53,254.28,306.53z"/>
	<path class="st11" d="M315.71,320.51c0,0,2.87,0.57,4.3,2.58c0,0,1.72,9.18-2.15,12.05c0,0-3.3,2.29-5.88,0
		c0,0-0.57,12.05,1.43,17.49l2.73,3.73c0,0,3.77-1.43,4.24,0c0,0-2.77,1.43,0,1.15c2.77-0.29,11.95-2.29,16.83-2.29
		c4.88,0,4.02,0,6.88-0.86c2.87-0.86,8.32,0,17.78,6.6c9.47,6.6,12.91,9.46,12.91,9.46s6.6,17.78,8.6,23.52c0,0,2.01-0.57,2.58,2.3
		c0.57,2.87,2.87,6.6,2.87,8.03c0,0-0.29,1.58-4.73,1.43c-4.44-0.14-2.72,4.3-2.44,5.59c0.29,1.29,1.15,8.89,1.15,10.61
		c0,0,13.91,20.07,18.21,26.1c4.3,6.02,6.88,7.74,9.75,9.32c2.87,1.58,20.22,13.48,25.38,21.22c5.16,7.74,21.94,17.49,25.96,19.5
		c4.01,2.01,11.04,7.31,13.91,7.6c2.87,0.29,4.59-0.14,6.6-1.87c2.01-1.72,4.59-2.15,5.59-2.29c1-0.14,3.16-2.15,5.88,0.86
		c2.72,3.01,4.44,6.31,5.02,7.03c0.57,0.72,1,1.58,0,2.01c0,0,3.01,5.02,4.3,5.59c1.29,0.57,0.57,3.73-2.01,4.59
		c0,0,0.57,3.01-0.72,4.16c-1.29,1.15-5.31,2.15-5.31,2.15s0.86,2.87-3.3,5.45h-2.44c0,0,0.86,3.01-4.59,2.58s-5.59-1.43-7.17-1.15
		c-1.58,0.29-8.46-5.45-10.18-8.6c-1.72-3.16-2.73-3.44-4.73-4.3c-2.01-0.86-24.38-7.31-35.85-12.62
		c-11.47-5.31-25.24-10.61-31.98-19.21c-6.74-8.61-10.47-14.06-12.33-16.78c-1.86-2.72-5.74-6.45-8.03-8.17
		c-2.3-1.72-15.2-17.35-18.36-27.1c0,0-2.01-3.44-3.3-3.73c0,0-2.44,5.31-5.88,8.32c0,0-1.58,18.64-5.74,38.15
		c0,0-1.86,16.64,2.01,31.98c0,0,2.44,17.06,2.58,19.79c0.14,2.72,2.01,15.49,3.01,16.63c1,1.15,2.72,4.16,1.86,8.75
		c0,0-98.09,3.87-130.79-2.15c0,0,1.43-3.44,1.72-6.02c0.29-2.58,2.29-8.32,3.73-10.9c1.43-2.58,1.72-14.05,1.72-14.05
		s4.3-14.34,4.88-20.65c0.57-6.31-0.57-16.06-1.15-22.95c-0.57-6.88,2.29-26.67,1.43-29.25c-0.86-2.58-4.02-12.08-4.02-12.08
		s-6.45,17.53-18.64,28.43c0,0-9.46,8.75-14.05,17.07c-4.59,8.32-16.92,17.21-30.4,23.37c-13.48,6.17-40.87,13.91-45.46,16.78
		c-4.59,2.87-8.03,8.03-11.47,9.89c-3.44,1.86-8.17,2.15-8.6,2.15s-4.02,1.29-4.73,0.72c-0.72-0.57-1.86-1.72-2.15-3.73
		c-0.29-2.01-2.01-2.87-3.3-4.45c-0.86,0-5.31-0.29-5.74-3.87c-0.43-3.59,0.43-5.02,0-5.31s-2.58-2.72-1.43-5.45
		c1.15-2.72,3.16-2.87,3.87-3.44c0.72-0.57,3.44-6.31,4.16-7.6c0.72-1.29,5.88-5.02,8.75-1.87c0,0,2.87,2.58,5.59,2.73
		c2.73,0.14,4.16,1.43,6.45,1c2.29-0.43,13.91-8.32,21.51-11.19c7.6-2.87,22.23-21.37,28.54-26.53
		c6.31-5.16,12.33-10.04,14.91-11.47c2.58-1.44,13.91-13.91,16.64-19.07c2.72-5.16,7.31-11.42,8.6-12.66l1.58-1.25
		c0,0,0.29-12.48,0.43-16.64c0,0-1.43-1.15-3.3-1.29c-1.86-0.14-1.15-2.44-1.15-2.44s1.15-5.45,1.86-6.45
		c0.72-1,4.73-11.76,5.88-13.48c1.15-1.72,2.44-6.31,4.45-8.89c0,0,3.87-3.87,5.31-6.02c1.43-2.15,3.44-5.02,4.16-5.59
		c0.72-0.57,15.63-7.74,18.79-8.17c0,0,9.32-1.43,13.91-1.29c4.59,0.14,9.32,0,9.32,0s3.73,3.15,6.74,2.58c0,0,0.57-0.56,0.91-1.27
		c0.11-0.24,0.2-0.48,0.24-0.73c0.14-1.01,1-21.51,0.14-24.09c0,0-1.72,3.01-3.87,2.01c-2.15-1-1.43-6.6-0.43-8.75
		c1-2.15,2.44-3.01,2.44-3.01s0.29-7.03,2.44-10.9c2.15-3.87,3.01-7.31,3.73-8.89c0.72-1.58,4.73-10.18,13.48-11.76
		c8.75-1.58,16.49,0.86,20.8,10.04C313.7,308.17,316.86,314.2,315.71,320.51z"/>
	<linearGradient id="SVGID_106_" gradientUnits="userSpaceOnUse" x1="294.3748" y1="491.3344" x2="305.8782" y2="247.0505">
		<stop  offset="0" style="stop-color:#E52527;stop-opacity:0"/>
		<stop  offset="1" style="stop-color:#E52527"/>
	</linearGradient>
	<path class="st110" d="M367.17,364.71c5.5,3.95,7.64,5.74,7.64,5.74s6.6,17.78,8.6,23.52c0,0,2.01-0.57,2.58,2.29
		c0.57,2.87,2.87,6.6,2.87,8.03c0,0-0.29,1.58-4.73,1.43c-4.44-0.14-2.72,4.3-2.44,5.59c0.29,1.29,1.15,8.89,1.15,10.61
		c0,0,13.91,20.08,18.21,26.1c4.3,6.02,6.88,7.74,9.75,9.32c2.87,1.58,20.22,13.48,25.38,21.22c5.16,7.74,21.94,17.5,25.96,19.5
		c4.01,2.01,11.04,7.31,13.91,7.6c2.87,0.29,4.59-0.14,6.6-1.86c2.01-1.72,4.59-2.15,5.59-2.29c1-0.14,3.16-2.15,5.88,0.86
		c2.72,3.01,4.44,6.31,5.02,7.03c0.57,0.72,1,1.58,0,2.01c0,0,3.01,5.02,4.3,5.59c1.29,0.57,0.57,3.73-2.01,4.59
		c0,0,0.57,3.01-0.72,4.16c-1.29,1.15-5.31,2.15-5.31,2.15s0.86,2.87-3.3,5.45h-2.44c0,0,0.86,3.01-4.59,2.58
		c-5.45-0.43-5.59-1.43-7.17-1.15c-1.58,0.29-8.46-5.45-10.18-8.61c-1.72-3.15-2.72-3.44-4.73-4.3
		c-2.01-0.86-24.38-7.31-35.85-12.62c-11.47-5.31-25.24-10.61-31.98-19.22c-6.74-8.6-10.47-14.05-12.33-16.78
		c-1.86-2.73-5.74-6.45-8.03-8.18c-2.29-1.72-15.2-17.35-18.36-27.1c0,0-2.01-3.44-3.3-3.73c0,0-2.44,5.31-5.88,8.32
		c0,0-0.58,6.82-1.95,16.49c0.39,0.53,0.75,1.22,1.01,2.03c0.62,1.93,0.45,3.71-0.39,3.98c-0.42,0.13-0.93-0.14-1.42-0.7
		c-0.8,5.09-1.78,10.68-2.99,16.35c0,0-1.86,16.63,2.01,31.98c0,0,2.44,17.07,2.58,19.79c0.14,2.73,2.01,15.49,3.01,16.64
		c1,1.15,2.73,4.16,1.86,8.75c0,0-98.09,3.87-130.79-2.15c0,0,1.43-3.44,1.72-6.02c0.29-2.58,2.29-8.32,3.73-10.9
		c1.43-2.58,1.72-14.05,1.72-14.05s4.3-14.34,4.88-20.65c0.57-6.31-0.57-16.06-1.15-22.94c-0.15-1.83-0.06-4.59,0.14-7.69
		c-0.25,0.15-0.5,0.21-0.72,0.14c-0.77-0.25-0.93-1.89-0.36-3.67c0.37-1.15,0.96-2.07,1.54-2.51c0.6-7.05,1.32-14.06,0.83-15.52
		c-0.86-2.58-4.02-12.08-4.02-12.08s-4.85,13.15-14.07,23.75c1.56-0.67,3.39,0.1,4.12,1.73c0.72,1.64,0.05,3.53-1.52,4.22
		c-1.56,0.69-3.42-0.08-4.14-1.72c-0.36-0.81-0.37-1.67-0.11-2.42c-0.94,0.99-1.9,1.96-2.92,2.87c0,0-9.46,8.75-14.05,17.06
		c-4.59,8.32-16.92,17.21-30.4,23.38c-13.48,6.17-40.87,13.91-45.46,16.78c-4.59,2.87-8.03,8.03-11.47,9.9
		c-3.44,1.86-8.17,2.15-8.6,2.15c-0.43,0-4.02,1.29-4.73,0.72c-0.72-0.57-1.86-1.72-2.15-3.73c-0.29-2.01-2.01-2.87-3.3-4.45
		c-0.86,0-5.31-0.29-5.74-3.87c-0.43-3.58,0.43-5.02,0-5.3c-0.43-0.29-2.58-2.73-1.43-5.45c1.15-2.73,3.16-2.87,3.87-3.44
		c0.72-0.57,3.44-6.31,4.16-7.6c0.72-1.29,5.88-5.02,8.75-1.86c0,0,2.87,2.58,5.59,2.72c2.73,0.14,4.16,1.44,6.45,1
		c2.29-0.43,13.91-8.32,21.51-11.18c7.6-2.87,22.23-21.37,28.54-26.53c6.31-5.16,12.33-10.04,14.91-11.47
		c2.58-1.43,13.91-13.91,16.64-19.07c2.72-5.16,7.31-11.42,8.6-12.66l1.58-1.25c0,0,0.29-12.47,0.43-16.63c0,0-1.43-1.15-3.3-1.29
		c-1.86-0.14-1.15-2.44-1.15-2.44s1.15-5.45,1.86-6.45c0.72-1,4.73-11.76,5.88-13.48c1.15-1.72,2.44-6.31,4.45-8.89
		c0,0,3.87-3.87,5.31-6.02c1.43-2.15,3.44-5.02,4.16-5.59c0.16-0.13,1.06-0.6,2.35-1.24l0.24,0.01l7.78-3.57l-0.1-0.16
		c3.64-1.61,7.16-3.04,8.52-3.23c0,0,9.32-1.43,13.91-1.29c2.64,0.08,5.3,0.07,7.11,0.05c-2.23-4.02-4.48-10.31-5.19-12.8
		c0,0-3.77-3.14-3.44-5.83c0,0,1.79-3.8,1.35-5.4c-0.44-1.6-2.76-8.34-1.88-12.22c0.88-3.88,0.59-10.06,1.18-10.36
		c0.59-0.3,1.69-0.68,1.69-0.68s3.02-14.49,13.63-20.97c0,0,11.64-13.25,30.48-7.22c0,0,18.13,4.7,23.05,21.2
		c0,0,3.96,3.98,3.39,10.75c0,0,1.83,1.99,0.95,5.7l-0.95,2.7c0,0,1.68,9.02-2.07,15.84c0,0,3.02,9.18,0,13.16
		c-3.02,3.97-4.64-3.26-4.93-4.35l-0.88-1.39h-4.12c0,0-0.24,1.25-0.72,3.02c0.2,2.82,0.59,5.67,1.31,7.65l2.73,3.73
		c0,0,3.77-1.44,4.24,0c0,0-2.77,1.43,0,1.15c2.77-0.29,11.95-2.3,16.83-2.3c4.88,0,4.02,0,6.88-0.86c1.77-0.53,4.53-0.4,8.62,1.33
		C352.73,355.71,363.46,361.23,367.17,364.71z"/>
	<linearGradient id="SVGID_107_" gradientUnits="userSpaceOnUse" x1="359.37" y1="360.1122" x2="359.4857" y2="357.653">
		<stop  offset="0" style="stop-color:#E52527;stop-opacity:0"/>
		<stop  offset="1" style="stop-color:#E52527"/>
	</linearGradient>
	<path class="st111" d="M361.82,360.92c-1.74-1.21-3.35-2.23-4.83-3.08L361.82,360.92z"/>
	<linearGradient id="SVGID_108_" gradientUnits="userSpaceOnUse" x1="304.6748" y1="334.7401" x2="267.5192" y2="584.922">
		<stop  offset="0" style="stop-color:#E52527;stop-opacity:0"/>
		<stop  offset="1" style="stop-color:#E52527"/>
	</linearGradient>
	<path class="st112" d="M271.63,354l-48.94,25.35l37.24,30.75l-3.81,26.82c0,0,46.48,37.46,50.3,42.67
		c3.82,5.21,42.05,67.7,42.05,67.7l-3.97-27.53l-3.15-21.32l-1.02-3.76l-12.63-46.54L261.71,399L271.63,354z"/>
	<g>
		<defs>
			<path id="SVGID_103_" d="M503.44,517.2c-1.29-0.57-4.3-5.59-4.3-5.59c1-0.43,0.57-1.29,0-2.01c-0.57-0.72-2.3-4.02-5.02-7.03
				c-2.73-3.01-4.88-1.01-5.88-0.86c-1,0.14-3.59,0.57-5.59,2.29c-2.01,1.72-3.73,2.15-6.6,1.86c-2.87-0.29-9.9-5.59-13.91-7.6
				c-4.02-2.01-20.79-11.76-25.96-19.5c-5.16-7.74-22.51-19.65-25.38-21.22c-2.87-1.58-5.45-3.3-9.75-9.32
				c-4.3-6.02-18.21-26.1-18.21-26.1c0-1.72-0.86-9.32-1.15-10.61c-0.29-1.29-2.01-5.73,2.44-5.59c4.45,0.14,4.73-1.44,4.73-1.44
				c0-1.43-2.29-5.16-2.87-8.03c-0.57-2.87-2.58-2.29-2.58-2.29c-2.01-5.74-8.6-23.52-8.6-23.52s-3.44-2.87-12.91-9.46
				c-9.46-6.6-14.91-7.46-17.78-6.6c-2.87,0.86-2.01,0.86-6.88,0.86c-4.88,0-14.05,2.01-16.83,2.3c-2.77,0.29,0-1.15,0-1.15
				c-0.48-1.43-4.24,0-4.24,0l-2.73-3.73c-0.73-1.98-1.11-4.82-1.31-7.65c0.48-1.77,0.72-3.02,0.72-3.02h4.12l0.88,1.39
				c0.3,1.09,1.91,8.33,4.93,4.35c3.02-3.98,0-13.16,0-13.16c3.75-6.82,2.07-15.84,2.07-15.84l0.95-2.7
				c0.88-3.72-0.95-5.71-0.95-5.71c0.57-6.77-3.39-10.75-3.39-10.75c-4.92-16.5-23.05-21.2-23.05-21.2
				c-18.85-6.04-30.48,7.21-30.48,7.21c-10.61,6.48-13.63,20.97-13.63,20.97s-1.1,0.38-1.69,0.68c-0.59,0.3-0.29,6.48-1.18,10.36
				c-0.88,3.88,1.44,10.63,1.88,12.22c0.44,1.6-1.35,5.4-1.35,5.4c-0.34,2.69,3.44,5.83,3.44,5.83c0.72,2.5,2.96,8.78,5.19,12.8
				c-1.81,0.03-4.47,0.04-7.11-0.04c-4.59-0.14-13.91,1.29-13.91,1.29c-3.16,0.43-18.07,7.6-18.79,8.17
				c-0.72,0.57-2.73,3.44-4.16,5.59c-1.43,2.15-5.31,6.02-5.31,6.02c-2.01,2.58-3.3,7.17-4.45,8.89
				c-1.15,1.72-5.16,12.48-5.88,13.48c-0.72,1-1.86,6.45-1.86,6.45s-0.72,2.3,1.15,2.44c1.86,0.14,3.3,1.29,3.3,1.29
				c-0.14,4.16-0.43,16.63-0.43,16.63l-1.58,1.25c-1.29,1.25-5.88,7.5-8.6,12.66c-2.73,5.16-14.05,17.64-16.64,19.07
				c-2.58,1.43-8.6,6.31-14.91,11.47c-6.31,5.16-20.94,23.66-28.54,26.53c-7.6,2.87-19.22,10.75-21.51,11.18
				c-2.3,0.43-3.73-0.86-6.45-1c-2.72-0.14-5.59-2.72-5.59-2.72c-2.87-3.16-8.03,0.57-8.75,1.86c-0.72,1.29-3.44,7.03-4.16,7.6
				c-0.72,0.57-2.72,0.72-3.87,3.44c-1.15,2.72,1,5.16,1.43,5.45c0.43,0.29-0.43,1.72,0,5.31c0.43,3.59,4.88,3.87,5.74,3.87
				c1.29,1.58,3.01,2.44,3.3,4.44c0.29,2.01,1.43,3.16,2.15,3.73c0.72,0.57,4.3-0.72,4.73-0.72c0.43,0,5.16-0.29,8.6-2.15
				c3.44-1.86,6.88-7.03,11.47-9.89c4.59-2.87,31.98-10.61,45.46-16.78c13.48-6.17,25.81-15.06,30.4-23.38
				c4.59-8.32,14.05-17.06,14.05-17.06c12.19-10.9,18.64-28.43,18.64-28.43s3.16,9.5,4.02,12.08c0.86,2.58-2.01,22.37-1.43,29.26
				c0.57,6.88,1.72,16.63,1.15,22.94c-0.57,6.31-4.88,20.65-4.88,20.65s-0.29,11.47-1.72,14.05c-1.43,2.58-3.44,8.32-3.73,10.9
				c-0.29,2.58-1.72,6.02-1.72,6.02c32.7,6.02,130.79,2.15,130.79,2.15c0.86-4.59-0.86-7.6-1.86-8.75c-1-1.15-2.87-13.91-3.01-16.64
				s-2.58-19.79-2.58-19.79c-3.87-15.34-2.01-31.98-2.01-31.98c4.16-19.5,5.74-38.15,5.74-38.15c3.44-3.01,5.88-8.32,5.88-8.32
				c1.29,0.29,3.3,3.73,3.3,3.73c3.16,9.75,16.06,25.38,18.36,27.1c2.29,1.72,6.17,5.45,8.03,8.17c1.86,2.73,5.59,8.18,12.33,16.78
				c6.74,8.6,20.51,13.91,31.98,19.22c11.47,5.3,33.84,11.76,35.85,12.62c2.01,0.86,3.01,1.15,4.73,4.3
				c1.72,3.16,8.6,8.89,10.18,8.6c1.58-0.29,1.72,0.72,7.17,1.15c5.45,0.43,4.59-2.58,4.59-2.58h2.44c4.16-2.58,3.3-5.45,3.3-5.45
				s4.02-1,5.31-2.15c1.29-1.15,0.72-4.16,0.72-4.16C504.01,520.93,504.73,517.78,503.44,517.2z"/>
		</defs>
		<clipPath id="SVGID_109_">
			<use xlink:href="#SVGID_103_"  style="overflow:visible;"/>
		</clipPath>
		<g class="st113">
			<g>
				<linearGradient id="SVGID_110_" gradientUnits="userSpaceOnUse" x1="364.3374" y1="427.2233" x2="359.2027" y2="389.0921">
					<stop  offset="0" style="stop-color:#E52527;stop-opacity:0"/>
					<stop  offset="1" style="stop-color:#E52527"/>
				</linearGradient>
				<path class="st114" d="M353.16,434.48c0,0-5.89-12.4-1.61-21.94c0,0,15.92-8.48,23.33-8.73L353.16,434.48z"/>
				<linearGradient id="SVGID_111_" gradientUnits="userSpaceOnUse" x1="314.4021" y1="276.6033" x2="283.5089" y2="302.6909">
					<stop  offset="0" style="stop-color:#E52527;stop-opacity:0"/>
					<stop  offset="1" style="stop-color:#E52527"/>
				</linearGradient>
				<path class="st115" d="M281.51,275.62l22.93,24.08l21.59-4.17C326.03,295.53,316.44,274.49,281.51,275.62z"/>
				<linearGradient id="SVGID_112_" gradientUnits="userSpaceOnUse" x1="321.4751" y1="295.0637" x2="287.4834" y2="317.1853">
					<stop  offset="0" style="stop-color:#E52527;stop-opacity:0"/>
					<stop  offset="1" style="stop-color:#E52527"/>
				</linearGradient>
				<polygon class="st116" points="306.43,277 304.45,299.71 316.96,321.08 337.94,312.2 325.16,275.58 				"/>
				<linearGradient id="SVGID_113_" gradientUnits="userSpaceOnUse" x1="360.0426" y1="357.0472" x2="279.099" y2="409.7248">
					<stop  offset="0" style="stop-color:#E52527;stop-opacity:0"/>
					<stop  offset="1" style="stop-color:#E52527"/>
				</linearGradient>
				<path class="st117" d="M315.19,316.01l-13.84,17.02l19.94,42.95l31.87,35.51c0,0,16.88-8.92,21.72-7.68l17.67,2.32l9.71-30.15
					c0,0-19.77-44.42-20.68-45.71c-0.91-1.29-39.22-22.52-39.22-22.52L315.19,316.01z"/>
				<linearGradient id="SVGID_114_" gradientUnits="userSpaceOnUse" x1="296.481" y1="278.7254" x2="300.793" y2="309.0491">
					<stop  offset="0" style="stop-color:#E52527;stop-opacity:0"/>
					<stop  offset="1" style="stop-color:#E52527"/>
				</linearGradient>
				<path class="st118" d="M287.08,277.05l18.26,12.46l0.7-8.02C306.04,281.48,294.07,273.49,287.08,277.05z"/>
				<linearGradient id="SVGID_115_" gradientUnits="userSpaceOnUse" x1="320.2431" y1="299.7212" x2="324.7448" y2="331.3787">
					<stop  offset="0" style="stop-color:#E52527;stop-opacity:0"/>
					<stop  offset="1" style="stop-color:#E52527"/>
				</linearGradient>
				<path class="st119" d="M319.68,296.2l-4.05,7.68l11.26,7.47C326.89,311.34,326.86,298.69,319.68,296.2z"/>
				<linearGradient id="SVGID_116_" gradientUnits="userSpaceOnUse" x1="296.1626" y1="284.9239" x2="288.7926" y2="334.5488">
					<stop  offset="0" style="stop-color:#E52527;stop-opacity:0"/>
					<stop  offset="1" style="stop-color:#E52527"/>
				</linearGradient>
				<polygon class="st120" points="294.73,289.5 271.63,294.44 306.04,327.26 314.54,316.8 304.45,299.71 				"/>
				<linearGradient id="SVGID_117_" gradientUnits="userSpaceOnUse" x1="315.7433" y1="328.9601" x2="306.2031" y2="393.1978">
					<stop  offset="0" style="stop-color:#E52527;stop-opacity:0"/>
					<stop  offset="1" style="stop-color:#E52527"/>
				</linearGradient>
				<polygon class="st121" points="301.35,333.03 327.71,341.23 297.27,379.12 				"/>
				<linearGradient id="SVGID_118_" gradientUnits="userSpaceOnUse" x1="261.115" y1="372.1068" x2="379.4557" y2="408.796">
					<stop  offset="0" style="stop-color:#E52527;stop-opacity:0"/>
					<stop  offset="1" style="stop-color:#E52527"/>
				</linearGradient>
				<polygon class="st122" points="311.95,355.89 278.15,409.37 319.68,409.37 321.29,375.98 				"/>
				<linearGradient id="SVGID_119_" gradientUnits="userSpaceOnUse" x1="349.2206" y1="385.0606" x2="299.2223" y2="421.2104">
					<stop  offset="0" style="stop-color:#E52527;stop-opacity:0"/>
					<stop  offset="1" style="stop-color:#E52527"/>
				</linearGradient>
				<polygon class="st123" points="320.04,401.98 353.16,411.49 321.29,375.98 				"/>
			</g>
			<linearGradient id="SVGID_120_" gradientUnits="userSpaceOnUse" x1="349.1216" y1="385.6252" x2="314.9655" y2="407.8537">
				<stop  offset="0" style="stop-color:#E52527;stop-opacity:0"/>
				<stop  offset="1" style="stop-color:#E52527"/>
			</linearGradient>
			<polygon class="st124" points="321.29,375.98 341.54,362.07 350.23,362.07 353.16,411.49 			"/>
			<linearGradient id="SVGID_121_" gradientUnits="userSpaceOnUse" x1="347.1448" y1="381.2133" x2="358.2957" y2="459.6294">
				<stop  offset="0" style="stop-color:#E52527;stop-opacity:0"/>
				<stop  offset="1" style="stop-color:#E52527"/>
			</linearGradient>
			<polygon class="st125" points="321.29,375.98 350.23,382.92 371.61,376.68 353.16,411.49 			"/>
			<linearGradient id="SVGID_122_" gradientUnits="userSpaceOnUse" x1="353.2561" y1="360.0894" x2="362.7406" y2="426.7869">
				<stop  offset="0" style="stop-color:#E52527;stop-opacity:0"/>
				<stop  offset="1" style="stop-color:#E52527"/>
			</linearGradient>
			<path class="st126" d="M344.12,354.58l-6.7,34.1l14.39-1.9l21.89-22.97C373.69,363.81,367.63,346.56,344.12,354.58z"/>
		</g>
	</g>
	<path class="st11" d="M339.11,463.09c0.62,0.84,0.68,2.47-0.24,3.39c-1.91,1.89-3.59-1.69-1.84-3.36
		C337.9,462.28,338.66,462.47,339.11,463.09z"/>
	<path class="st11" d="M338.58,456.14c0.26-2.23,1.26-3.94,2.22-3.82c0.97,0.11,1.53,2.01,1.27,4.23c-0.26,2.23-1.26,3.94-2.22,3.82
		C338.89,460.26,338.32,458.36,338.58,456.14z"/>
	<path class="st11" d="M341.03,463.65c-0.24-0.74-0.17-1.43,0.15-1.53c0.32-0.11,0.78,0.41,1.02,1.16c0.24,0.74,0.17,1.43-0.15,1.53
		C341.73,464.91,341.27,464.4,341.03,463.65z"/>
	<path class="st11" d="M334.79,467.35c0-0.78,0.27-1.42,0.6-1.42c0.34,0,0.62,0.63,0.62,1.41c0,0.78-0.27,1.42-0.6,1.42
		C335.07,468.76,334.79,468.13,334.79,467.35z"/>
	<path class="st11" d="M236.82,471.77c-0.57,0.78-0.63,2.28,0.22,3.13c1.76,1.75,3.31-1.56,1.7-3.1
		C237.93,471.02,237.24,471.2,236.82,471.77z"/>
	<path class="st11" d="M237.31,465.36c-0.24-2.05-1.16-3.63-2.05-3.52c-0.89,0.11-1.41,1.85-1.17,3.9c0.24,2.05,1.16,3.63,2.05,3.52
		C237.02,469.16,237.55,467.41,237.31,465.36z"/>
	<path class="st11" d="M235.05,472.29c0.22-0.68,0.16-1.32-0.14-1.41c-0.3-0.1-0.72,0.38-0.94,1.07c-0.22,0.69-0.16,1.32,0.14,1.41
		C234.41,473.45,234.83,472.97,235.05,472.29z"/>
	<path class="st11" d="M240.81,475.69c0-0.72-0.25-1.31-0.56-1.31c-0.31,0-0.57,0.58-0.57,1.3c0,0.72,0.25,1.31,0.56,1.31
		C240.55,477,240.8,476.41,240.81,475.69z"/>
	<path class="st13" d="M270.54,303.65c0,0-1.17-4.92,0.21-6.75c1.38-1.83,3.46-1.89,4.08,0.13c0,0,0.86,0.67,2.65-0.19
		c1.79-0.85,4.64-1.3,6.88-0.97c2.24,0.34,4.59,0.07,4.59,0.07s1.47,0.02,2.26-0.41c0.8-0.43,3.74-0.61,3.64,2.57
		c-0.1,3.18-0.04,4.54-0.75,5.34C294.1,303.44,281.37,300.87,270.54,303.65z"/>
	<path class="st13" d="M303.11,330.33c0,0,2.36-1.18,4.56,1.18c2.21,2.36,2.06,3.38,2.06,3.38s-0.88,3.68-3.31,3.83l-1.55-1.03
		v-3.31c0,0-0.44-0.88-1.77-1.88V330.33z"/>
	<path class="st13" d="M259.93,330.33c0,0-2.36-1.18-4.57,1.18c-2.21,2.36-2.06,3.38-2.06,3.38s0.88,3.68,3.31,3.83l1.55-1.03v-3.31
		c0,0,0.44-0.88,1.77-1.88V330.33z"/>
	<path class="st13" d="M322.21,317.25c0,0,0.79,1.28,0,2.46l-2.15,1.14c0,0-0.12-0.85,0-1.8L322.21,317.25z"/>
	<path class="st13" d="M323.49,323.84c0,0,0.66,5.21-0.93,7.91c0,0-1.77,1.44-1.77,0.94c0-0.5,0-8.31,0-8.31l1.77-1.22
		C322.56,323.16,323.39,322.58,323.49,323.84z"/>
	<path class="st13" d="M316.95,327.83c0,0,1.47-0.39,1.47,0.98l-5.89,9.91l-0.59-4.34L316.95,327.83z"/>
	<polygon class="st13" points="316.95,333.25 313.42,339.9 317.83,339.9 317.83,333.25 	"/>
	<path class="st13" d="M310.91,336.58c0,0-1.77,1.71-2.06,3.33c-0.29,1.62-2.65,6.48-3.39,7.36c-0.74,0.88,0.96-6.77,0.96-6.77
		s-0.81-3.09-1.99-0.59c0,0-0.74,11.49-4.27,13.84c0,0,3.09,1.18,5.37,0c2.28-1.18,5.74-11.71,5.74-11.71L310.91,336.58z"/>
	<path class="st13" d="M258.77,341.95c0,0,0.62-1.72,1.7-1.86l-0.04-1.72c0,0,2.99-2.36,3.89-1.81c0,0,1.07,14.09,3.43,16.86
		c0,0-3.45,0.83-4.32,0.32C263.44,353.74,258.51,344.6,258.77,341.95z"/>
	<path class="st13" d="M267.34,335.06c0,0,5-0.55,7.34-0.32c0,0,0.99,18.21,1.23,19.26h-4.29c0,0-1.26,0.2-1.88-1.35
		C269.13,351.1,267.34,335.06,267.34,335.06z"/>
	<path class="st13" d="M279.24,335.19l7.83,0.57l-1.93,16.7c0,0-0.11,0.68-1.13,0.74c-1.02,0.06-3.75,0-3.75,0s-1.02,0.07-1.02-1.24
		C279.24,350.65,279.24,335.19,279.24,335.19z"/>
	<path class="st13" d="M290.17,335.26l-2.23,18.03h8.09c0,0,3.13-0.39,4.17-4.83c1.04-4.44,1.56-9,1.56-9s-1.17,0.24-1.17-1.25
		c0-1.49,0.91-1.62,0-1.49C299.68,336.85,292.53,334.58,290.17,335.26z"/>
	<path class="st13" d="M265.92,327.37c0,0,13.25-2.43,35.42,2.67v2.76c0,0-12.83-5.54-35.34-2.76L265.92,327.37z"/>
	<path class="st13" d="M319.83,337.94l1.42-1.64c0,0,1.22,5.08,0.35,6.31c-0.86,1.23-1.41,1.17-1.77-0.16
		C319.47,341.12,319.83,337.94,319.83,337.94z"/>
	<path class="st13" d="M252.83,311.97c0,0-0.63-4.53,1.45-4.53L252.83,311.97z"/>
	<path class="st13" d="M360.63,369.58c-1.39-0.43-10.33-8.25-12.92-8.43c0,0-4.21-0.46-6.18,0.68c-1.6,0.93-1.33-2.84-1.17-4.3
		c3.36,0.12,8.65,1.29,8.65,1.29c2.19,0.43,12.52,7.6,13.02,8.17C362.03,367,362.02,370.01,360.63,369.58z"/>
	<path class="st13" d="M295.55,409.68c5.92,3.48,8.88,8.45,8.88,14.91c0,4.83-1.7,8.93-5.1,12.3c-3.4,3.37-8.39,5.05-14.99,5.05
		c-6.34,0-11.08-1.47-14.21-4.42c-3.13-2.95-4.69-6.75-4.69-11.41c0-2.78,0.65-5.23,1.95-7.35c1.31-2.12,3.78-4.13,7.42-6.04
		c-5.15-3.26-7.73-7.76-7.73-13.52c0-4.49,1.52-8.36,4.55-11.62c3.03-3.25,7.62-4.88,13.77-4.88c5.84,0,10.21,1.35,13.12,4.06
		c2.91,2.71,4.36,6.25,4.36,10.63C302.88,402.75,300.44,406.85,295.55,409.68z M282.1,416.84c-3.66,2.25-5.49,5.05-5.49,8.42
		c0,2.41,0.73,4.34,2.18,5.79c1.46,1.45,3.46,2.17,6.01,2.17c2.38,0,4.27-0.66,5.67-1.98c1.4-1.32,2.1-2.89,2.1-4.72
		c0-1.49-0.58-2.96-1.74-4.42C289.65,420.64,286.75,418.89,282.1,416.84z M287.93,405.89c2.72-2.58,4.08-5.22,4.08-7.92
		c0-2.11-0.55-3.81-1.66-5.12c-1.11-1.31-2.69-1.96-4.74-1.96c-1.97,0-3.57,0.59-4.8,1.77c-1.24,1.18-1.85,2.68-1.85,4.51
		c0,2.19,0.97,3.97,2.93,5.35C283.84,403.9,285.85,405.02,287.93,405.89z"/>
	<path class="st11" d="M220.21,555.72c0,0-4.57,22.28-8.04,40.99c-3.47,18.7,46.85,17.27,59.46,10.07
		c12.61-7.2-7.73-18.77-1.88-23.05c5.85-4.28,26.34-2.85,33.36-10.04c7.02-7.19,46.31-5.73,47.89-15.82
		C352.58,547.79,220.21,555.72,220.21,555.72z"/>
	<path class="st13" d="M233.62,410.83l-5.69-10.66l-1.52-9.04l-3.71-11.78l-4.88-5.32c-1.5,2.71-3.03,5.67-3.99,7.24
		c-1.05,1.72-5.92,11.09-6.63,11.98c-0.71,0.89-1.92,5.76-1.92,5.76s-0.73,2.05,1.08,2.21c1.82,0.16,3.2,1.21,3.2,1.21
		c-0.01,0.12-0.01,0.26-0.02,0.4l0,0c7.79,0.91,24.02,11.6,24.02,11.6L233.62,410.83z"/>
	<path class="st13" d="M219.28,371.37l3.31-5.74l18.7-8.24c0,0,2.07-0.83,1.53,2.31l-17.16,7.3l-3.76,5.21L219.28,371.37z"/>
	<linearGradient id="SVGID_123_" gradientUnits="userSpaceOnUse" x1="301.1352" y1="286.6105" x2="287.7536" y2="305.8992">
		<stop  offset="0" style="stop-color:#E52527;stop-opacity:0"/>
		<stop  offset="1" style="stop-color:#E52527"/>
	</linearGradient>
	<path class="st127" d="M255.93,307.59c0,0,34.7-15.03,57.67,5.23c0,0-24.98-15.79-58.21-2.35L255.93,307.59z"/>
	<path class="st13" d="M266.19,324.71c0,0,0-0.05,0-0.15c0.01-0.63,0.05-3.09,0.05-3.09l0.25-14.95
		c-5.82,0.27-11.11,3.94-11.11,3.94c0.25,11.42,2.56,18.3,2.56,18.31C257.57,329.21,262.79,325.69,266.19,324.71z"/>
	<path class="st13" d="M268.34,306.56c0,0-0.73,16.59-0.3,17.59c0,0,25.84,0.22,34.28,4.56c0,0,2.89-0.94,4.75,0.08
		c0,0,2.83,2.48,2.93,3.25c0.1,0.77,0.1,0.77,0.1,0.77l1.77,0.03l5.09-7.09l-1.71-9.64c0,0-0.27-3.87-5.21-5.5
		C305.09,309,288.09,301.89,268.34,306.56z"/>
	<linearGradient id="SVGID_124_" gradientUnits="userSpaceOnUse" x1="293.6516" y1="317.0258" x2="285.5442" y2="328.7122">
		<stop  offset="0" style="stop-color:#E52527;stop-opacity:0"/>
		<stop  offset="1" style="stop-color:#E52527"/>
	</linearGradient>
	<path class="st128" d="M266,330.03l0.34,1.72c0,0,18.51-2.31,35,1.04C301.34,332.8,285.56,327.03,266,330.03z"/>
	<linearGradient id="SVGID_125_" gradientUnits="userSpaceOnUse" x1="294.7051" y1="312.7102" x2="286.3711" y2="324.7233">
		<stop  offset="0" style="stop-color:#E52527;stop-opacity:0"/>
		<stop  offset="1" style="stop-color:#E52527"/>
	</linearGradient>
	<path class="st129" d="M268.04,324.16l-2.12,3.21c0,0,16.98-2.27,35.42,2.67l0.98-1.32C302.32,328.72,294.01,324.31,268.04,324.16z
		"/>
	<linearGradient id="SVGID_126_" gradientUnits="userSpaceOnUse" x1="438.6765" y1="487.7406" x2="417.0858" y2="327.4032">
		<stop  offset="0" style="stop-color:#E52527;stop-opacity:0"/>
		<stop  offset="1" style="stop-color:#E52527"/>
	</linearGradient>
	<path class="st130" d="M480.22,505.83c6.35-3.41,10.1-4.86,12.68-5.18c-2.42-2.08-4.33-0.42-5.25-0.29c-1,0.14-3.59,0.57-5.59,2.29
		c-2.01,1.72-3.73,2.15-6.6,1.87c-2.87-0.29-9.89-5.59-13.91-7.6c-4.01-2.01-20.79-11.76-25.96-19.5
		c-5.16-7.75-22.51-19.65-25.38-21.22c-2.87-1.58-5.45-3.3-9.75-9.32c-4.3-6.02-17.63-24.98-17.63-24.98
		c0-1.72-0.86-9.32-1.15-10.61c-0.27-1.2-1-3.45,0.24-5l1.35-0.56l-8.4-2.15c0,0,2.76,14.97,5.28,19.74
		c2.52,4.76,16.63,29.94,25.4,34.98c8.77,5.03,22.12,11.6,29.47,21.09C442.38,488.87,468.95,511.9,480.22,505.83z"/>
	<linearGradient id="SVGID_127_" gradientUnits="userSpaceOnUse" x1="374.8653" y1="403.5783" x2="374.8653" y2="403.5783">
		<stop  offset="0" style="stop-color:#E52527;stop-opacity:0"/>
		<stop  offset="1" style="stop-color:#E52527"/>
	</linearGradient>
	<path class="st131" d="M374.87,403.58"/>
	<linearGradient id="SVGID_128_" gradientUnits="userSpaceOnUse" x1="364.3287" y1="426.9956" x2="359.1941" y2="388.8648">
		<stop  offset="0" style="stop-color:#E52527;stop-opacity:0"/>
		<stop  offset="1" style="stop-color:#E52527"/>
	</linearGradient>
	<path class="st132" d="M353.15,434.26c0,0-5.89-12.4-1.61-21.94c0,0,15.92-8.48,23.33-8.73L353.15,434.26z"/>
	<linearGradient id="SVGID_129_" gradientUnits="userSpaceOnUse" x1="372.1783" y1="466.8213" x2="361.3947" y2="392.6519">
		<stop  offset="0" style="stop-color:#E52527;stop-opacity:0"/>
		<stop  offset="1" style="stop-color:#E52527"/>
	</linearGradient>
	<path class="st133" d="M353.15,434.26l27-10.94c0,0-4.59-15.98-5.28-19.74l-21.39,29.82L353.15,434.26z"/>
	<linearGradient id="SVGID_130_" gradientUnits="userSpaceOnUse" x1="368.8618" y1="449.884" x2="422.0102" y2="417.5094">
		<stop  offset="0" style="stop-color:#E52527;stop-opacity:0"/>
		<stop  offset="1" style="stop-color:#E52527"/>
	</linearGradient>
	<path class="st134" d="M353.15,434.26c0,0,26.83,28.16,28.42,33.09l6.51-30.42l6.14,9.2l-4.12-13.89l-7.27-10.33l-2.68,1.42
		L353.15,434.26z"/>
	<linearGradient id="SVGID_131_" gradientUnits="userSpaceOnUse" x1="371.6635" y1="453.8403" x2="428.1741" y2="419.4177">
		<stop  offset="0" style="stop-color:#E52527;stop-opacity:0"/>
		<stop  offset="1" style="stop-color:#E52527"/>
	</linearGradient>
	<path class="st135" d="M394.22,446.12c0,0,7.04,11.03,15.76,14.77c0,0-18.96,15.27-30.3,8.62c0,0-7.24-5.96-12.21-12.96
		c-4.98-7.01,43.25,5.94,42.52,4.34c-0.73-1.59-54.74-26.1-56.83-26.64l34.93,2.66L394.22,446.12z"/>
	<linearGradient id="SVGID_132_" gradientUnits="userSpaceOnUse" x1="386.3316" y1="461.6065" x2="407.1051" y2="440.833">
		<stop  offset="0" style="stop-color:#E52527;stop-opacity:0"/>
		<stop  offset="1" style="stop-color:#E52527"/>
	</linearGradient>
	<path class="st136" d="M388.08,436.92l-7.24,33.83c0,0,12.6,3.21,29.14-9.86C409.98,460.9,399.84,456.34,388.08,436.92z"/>
	<linearGradient id="SVGID_133_" gradientUnits="userSpaceOnUse" x1="403.2495" y1="479.8779" x2="428.7548" y2="454.3727">
		<stop  offset="0" style="stop-color:#E52527;stop-opacity:0"/>
		<stop  offset="1" style="stop-color:#E52527"/>
	</linearGradient>
	<path class="st137" d="M409.98,460.9c0,0,14.68,5.97,26,19.65c0,0-20.36,15.82-41.75,8.27c0,0-9.32-13.85-12.65-17.2
		c-3.33-3.36-0.73-0.87-0.73-0.87S395.59,465.33,409.98,460.9z"/>
	<linearGradient id="SVGID_134_" gradientUnits="userSpaceOnUse" x1="431.8965" y1="503.7773" x2="464.4829" y2="471.1909">
		<stop  offset="0" style="stop-color:#E52527;stop-opacity:0"/>
		<stop  offset="1" style="stop-color:#E52527"/>
	</linearGradient>
	<path class="st138" d="M435.97,480.55c0,0,22.38,24.86,40.45,26.29c0,0-5.94,5.49-10.52,15.74c0,0-15.68-4.79-19.07-5.93
		c-3.39-1.14-37.45-14.5-42.91-18.99c-5.46-4.49-8.51-7.07-9.7-8.83C393.03,487.07,435.97,480.55,435.97,480.55z"/>
	<linearGradient id="SVGID_135_" gradientUnits="userSpaceOnUse" x1="346.161" y1="447.1919" x2="402.9885" y2="390.3644">
		<stop  offset="0" style="stop-color:#E52527;stop-opacity:0"/>
		<stop  offset="1" style="stop-color:#E52527"/>
	</linearGradient>
	<path class="st139" d="M351.54,412.31l-23.83,35.82l13.19,33.84c0,0,6.11-26.58,5.81-39.53c0,0,3.87-2.16,6.78-9.04l21.39-29.82
		C374.87,403.58,361.54,405.39,351.54,412.31z"/>
	<linearGradient id="SVGID_136_" gradientUnits="userSpaceOnUse" x1="336.2942" y1="471.5209" x2="367.3189" y2="440.4962">
		<stop  offset="0" style="stop-color:#E52527;stop-opacity:0"/>
		<stop  offset="1" style="stop-color:#E52527"/>
	</linearGradient>
	<path class="st140" d="M346.69,442.44l-18.99,5.69l13.65,50.31l-0.46-16.47c0,0,4.77-34.27,6.22-37.65L346.69,442.44z"/>
	<linearGradient id="SVGID_137_" gradientUnits="userSpaceOnUse" x1="233.3414" y1="287.7722" x2="290.8933" y2="284.5349">
		<stop  offset="0" style="stop-color:#E52527;stop-opacity:0"/>
		<stop  offset="1" style="stop-color:#E52527"/>
	</linearGradient>
	<polygon class="st141" points="283.15,277.54 270.08,293.13 295.94,290.55 	"/>
	<linearGradient id="SVGID_138_" gradientUnits="userSpaceOnUse" x1="220.2982" y1="428.6507" x2="214.3838" y2="468.4743">
		<stop  offset="0" style="stop-color:#E52527;stop-opacity:0"/>
		<stop  offset="1" style="stop-color:#E52527"/>
	</linearGradient>
	<path class="st142" d="M228.53,440.02l-18.49-9.05l6.75,29.95C216.78,460.93,227.03,446.14,228.53,440.02z"/>
	<linearGradient id="SVGID_139_" gradientUnits="userSpaceOnUse" x1="212.6231" y1="443.8316" x2="204.4514" y2="498.8547">
		<stop  offset="0" style="stop-color:#E52527;stop-opacity:0"/>
		<stop  offset="1" style="stop-color:#E52527"/>
	</linearGradient>
	<path class="st143" d="M222.69,450.64l-22.85,7.39l-4.64,28.53c0,0,2.58-6.49,7.55-10.87C207.73,471.3,220.39,456.24,222.69,450.64
		z"/>
</g>
<linearGradient id="SVGID_140_" gradientUnits="userSpaceOnUse" x1="279.7091" y1="300.7484" x2="365.3194" y2="312.2591">
	<stop  offset="0" style="stop-color:#E52527;stop-opacity:0"/>
	<stop  offset="1" style="stop-color:#E52527"/>
</linearGradient>
<polygon class="st144" points="296.52,303.62 305.55,288.69 312.51,291.44 310.53,316.58 299.99,319.01 "/>
</svg>
